<svg width="24" height="16" viewBox="0 0 24 16" fill="none" xmlns="http://www.w3.org/2000/svg">
<path d="M1 7C0.447715 7 5.26716e-08 7.44772 0 8C-5.26716e-08 8.55228 0.447715 9 1 9L1 7ZM23.7071 8.70711C24.0976 8.31658 24.0976 7.68342 23.7071 7.2929L17.3431 0.928934C16.9526 0.538409 16.3195 0.538409 15.9289 0.928934C15.5384 1.31946 15.5384 1.95262 15.9289 2.34315L21.5858 8L15.9289 13.6569C15.5384 14.0474 15.5384 14.6805 15.9289 15.0711C16.3195 15.4616 16.9526 15.4616 17.3431 15.0711L23.7071 8.70711ZM1.91667 9C2.46895 9 2.91667 8.55228 2.91667 8C2.91667 7.44772 2.46895 7 1.91667 7L1.91667 9ZM5.58333 7C5.03105 7 4.58333 7.44772 4.58333 8C4.58333 8.55229 5.03105 9 5.58333 9L5.58333 7ZM7.41667 9C7.96895 9 8.41667 8.55229 8.41667 8C8.41667 7.44772 7.96895 7 7.41667 7L7.41667 9ZM11.0833 7C10.531 7 10.0833 7.44772 10.0833 8C10.0833 8.55229 10.531 9 11.0833 9L11.0833 7ZM12.9167 9C13.469 9 13.9167 8.55229 13.9167 8C13.9167 7.44772 13.469 7 12.9167 7L12.9167 9ZM16.5833 7C16.031 7 15.5833 7.44772 15.5833 8C15.5833 8.55229 16.031 9 16.5833 9L16.5833 7ZM18.4167 9C18.969 9 19.4167 8.55229 19.4167 8C19.4167 7.44772 18.969 7 18.4167 7L18.4167 9ZM22.0833 7C21.531 7 21.0833 7.44772 21.0833 8C21.0833 8.55229 21.531 9 22.0833 9L22.0833 7ZM1 9L1.91667 9L1.91667 7L1 7L1 9ZM5.58333 9L7.41667 9L7.41667 7L5.58333 7L5.58333 9ZM11.0833 9L12.9167 9L12.9167 7L11.0833 7L11.0833 9ZM16.5833 9L18.4167 9L18.4167 7L16.5833 7L16.5833 9ZM22.0833 9L23 9L23 7L22.0833 7L22.0833 9Z" fill="#CDD3DF"/>
</svg>
