<svg width="157" height="98" viewBox="0 0 157 98" fill="none" xmlns="http://www.w3.org/2000/svg">
<g clip-path="url(#clip0)">
<path d="M156.53 30.28L152.445 30.2595L152.445 30.28L156.53 30.28ZM156.53 30.2595L156.53 24.3851L152.445 24.3851L152.445 30.2595L156.53 30.2595ZM156.53 24.3851L152.445 24.3646L152.445 24.3851L156.53 24.3851ZM156.53 18.5311L152.445 18.5106L152.445 18.5311L156.53 18.5311ZM156.53 18.5106L156.53 12.6362L152.445 12.6362L152.445 18.5106L156.53 18.5106ZM156.53 12.6362L152.445 12.6157L152.445 12.6362L156.53 12.6362ZM156.53 6.78016L152.445 6.75968L152.445 6.78016L156.53 6.78016ZM156.53 6.75968L156.53 0.885218L152.445 0.885218L152.445 6.75968L156.53 6.75968ZM156.53 0.885218L152.445 0.864746L152.445 0.885218L156.53 0.885218Z" fill="#CDD3DF"/>
<path d="M156.53 41.2586L156.53 36.1379L152.445 36.1379L152.445 37.1621L151.424 37.1621L151.424 41.2586L156.53 41.2586Z" fill="#CDD3DF"/>
<path d="M66.6424 37.1621L60.0266 37.1621L60.0266 41.2587L60.049 37.1621L60.049 41.2587L66.622 41.2587L66.6424 37.1621ZM53.4965 37.1621L46.8786 37.1621L46.8786 41.2587L46.9011 37.1621L46.9011 41.2587L53.4741 41.2587L53.4965 37.1621ZM40.3506 37.1621L33.7328 37.1621L33.7328 41.2587L33.7552 37.1621L33.7552 41.2587L40.3282 41.2587L40.3506 37.1621ZM27.2048 37.1621L20.5889 37.1621L20.5889 41.2587L20.6114 37.1621L20.6114 41.2587L27.1843 41.2587L27.2048 37.1621Z" fill="#CDD3DF"/>
<path d="M118.642 37.1621L112.027 37.1621L112.027 41.2587L112.049 37.1621L112.049 41.2587L118.622 41.2587L118.642 37.1621ZM105.497 37.1621L98.8786 37.1621L98.8786 41.2587L98.9011 37.1621L98.9011 41.2587L105.474 41.2587L105.497 37.1621ZM92.3506 37.1621L85.7328 37.1621L85.7328 41.2587L85.7552 37.1621L85.7552 41.2587L92.3282 41.2587L92.3506 37.1621ZM79.2048 37.1621L72.5889 37.1621L72.5889 41.2587L72.6114 37.1621L72.6114 41.2587L79.1843 41.2587L79.2048 37.1621Z" fill="#CDD3DF"/>
<path d="M144.642 37.1621L138.049 37.1621L138.027 37.1621L138.027 41.2587L138.049 37.1621L138.049 41.2587L144.622 41.2587L144.642 37.1621Z" fill="#CDD3DF"/>
<path d="M131.497 37.1621L124.901 37.1621L124.879 37.1621L124.879 41.2587L124.901 37.1621L124.901 41.2587L131.474 41.2587L131.497 37.1621Z" fill="#CDD3DF"/>
<path d="M14.0385 41.2582L14.0385 37.1616L8.93208 37.1616L8.93208 42.2823L13.0172 42.2823L13.0172 41.2582L14.0385 41.2582Z" fill="#CDD3DF"/>
<path d="M13.0172 82.6984L8.93208 82.6738L8.93208 82.6984L13.0172 82.6984ZM13.0172 82.6738L13.0172 75.9903L8.93208 75.9903L8.93208 82.6738L13.0172 82.6738ZM13.0172 75.9924L8.93208 75.9678L8.93208 75.9924L13.0172 75.9924ZM13.0172 69.3293L8.93208 69.3068L8.93208 69.3293L13.0172 69.3293ZM13.0172 69.3068L13.0172 62.6212L8.93208 62.6212L8.93208 69.3068L13.0172 69.3068Z" fill="#CDD3DF"/>
<path d="M13.0172 55.6742L8.93208 55.6516L13.0172 55.6516L13.0172 48.9661L8.93208 48.9661L8.93208 55.6516L8.93208 55.6742L13.0172 55.6742Z" fill="#CDD3DF"/>
<path d="M21.2058 80.9961L17.664 78.9561L11.3505 89.9737L4.20152 79.4272L0.823143 81.7315L11.6405 97.6855L21.2058 80.9961Z" fill="#CDD3DF"/>
</g>
<defs>
<clipPath id="clip0">
<rect width="98" height="157" fill="white" transform="matrix(-4.37114e-08 1 1 4.37114e-08 0 0)"/>
</clipPath>
</defs>
</svg>
