<svg width="798" height="235" viewBox="0 0 798 235" fill="none" xmlns="http://www.w3.org/2000/svg">
<g opacity="0.3">
<path d="M99.5 235C140.093 235 173 202.093 173 161.5C173 120.907 140.093 88 99.5 88C58.9071 88 26 120.907 26 161.5C26 202.093 58.9071 235 99.5 235Z" fill="#004876"/>
</g>
<g opacity="0.3">
<path d="M664.584 21.1847C666.012 21.1847 667.169 20.024 667.169 18.5923C667.169 17.1606 666.012 16 664.584 16C663.157 16 662 17.1606 662 18.5923C662 20.024 663.157 21.1847 664.584 21.1847Z" fill="#004876"/>
<path d="M686.551 21.1847C687.978 21.1847 689.135 20.024 689.135 18.5923C689.135 17.1606 687.978 16 686.551 16C685.124 16 683.967 17.1606 683.967 18.5923C683.967 20.024 685.124 21.1847 686.551 21.1847Z" fill="#004876"/>
<path d="M708.195 21.1847C709.622 21.1847 710.779 20.024 710.779 18.5923C710.779 17.1606 709.622 16 708.195 16C706.767 16 705.61 17.1606 705.61 18.5923C705.61 20.024 706.767 21.1847 708.195 21.1847Z" fill="#004876"/>
<path d="M730.162 21.1847C731.589 21.1847 732.746 20.024 732.746 18.5923C732.746 17.1606 731.589 16 730.162 16C728.734 16 727.577 17.1606 727.577 18.5923C727.577 20.024 728.734 21.1847 730.162 21.1847Z" fill="#004876"/>
<path d="M751.805 21.1847C753.232 21.1847 754.39 20.024 754.39 18.5923C754.39 17.1606 753.232 16 751.805 16C750.378 16 749.221 17.1606 749.221 18.5923C749.221 20.024 750.378 21.1847 751.805 21.1847Z" fill="#004876"/>
<path d="M773.772 21.1847C775.199 21.1847 776.356 20.024 776.356 18.5923C776.356 17.1606 775.199 16 773.772 16C772.345 16 771.188 17.1606 771.188 18.5923C771.188 20.024 772.345 21.1847 773.772 21.1847Z" fill="#004876"/>
<path d="M795.416 21.1847C796.843 21.1847 798 20.024 798 18.5923C798 17.1606 796.843 16 795.416 16C793.988 16 792.831 17.1606 792.831 18.5923C792.831 20.024 793.988 21.1847 795.416 21.1847Z" fill="#004876"/>
<path d="M664.584 43.2196C666.012 43.2196 667.169 42.059 667.169 40.6272C667.169 39.1955 666.012 38.0349 664.584 38.0349C663.157 38.0349 662 39.1955 662 40.6272C662 42.059 663.157 43.2196 664.584 43.2196Z" fill="#004876"/>
<path d="M686.551 43.2196C687.978 43.2196 689.135 42.059 689.135 40.6272C689.135 39.1955 687.978 38.0349 686.551 38.0349C685.124 38.0349 683.967 39.1955 683.967 40.6272C683.967 42.059 685.124 43.2196 686.551 43.2196Z" fill="#004876"/>
<path d="M708.195 43.2196C709.622 43.2196 710.779 42.059 710.779 40.6272C710.779 39.1955 709.622 38.0349 708.195 38.0349C706.767 38.0349 705.61 39.1955 705.61 40.6272C705.61 42.059 706.767 43.2196 708.195 43.2196Z" fill="#004876"/>
<path d="M730.162 43.2196C731.589 43.2196 732.746 42.059 732.746 40.6272C732.746 39.1955 731.589 38.0349 730.162 38.0349C728.734 38.0349 727.577 39.1955 727.577 40.6272C727.577 42.059 728.734 43.2196 730.162 43.2196Z" fill="#004876"/>
<path d="M751.805 43.2196C753.232 43.2196 754.39 42.059 754.39 40.6272C754.39 39.1955 753.232 38.0349 751.805 38.0349C750.378 38.0349 749.221 39.1955 749.221 40.6272C749.221 42.059 750.378 43.2196 751.805 43.2196Z" fill="#004876"/>
<path d="M773.772 43.2196C775.199 43.2196 776.356 42.059 776.356 40.6272C776.356 39.1955 775.199 38.0349 773.772 38.0349C772.345 38.0349 771.188 39.1955 771.188 40.6272C771.188 42.059 772.345 43.2196 773.772 43.2196Z" fill="#004876"/>
<path d="M795.416 43.2196C796.843 43.2196 798 42.059 798 40.6272C798 39.1955 796.843 38.0349 795.416 38.0349C793.988 38.0349 792.831 39.1955 792.831 40.6272C792.831 42.059 793.988 43.2196 795.416 43.2196Z" fill="#004876"/>
<path d="M664.584 65.2545C666.012 65.2545 667.169 64.0939 667.169 62.6622C667.169 61.2304 666.012 60.0698 664.584 60.0698C663.157 60.0698 662 61.2304 662 62.6622C662 64.0939 663.157 65.2545 664.584 65.2545Z" fill="#004876"/>
<path d="M686.551 65.2545C687.978 65.2545 689.135 64.0939 689.135 62.6622C689.135 61.2304 687.978 60.0698 686.551 60.0698C685.124 60.0698 683.967 61.2304 683.967 62.6622C683.967 64.0939 685.124 65.2545 686.551 65.2545Z" fill="#004876"/>
<path d="M708.195 65.2545C709.622 65.2545 710.779 64.0939 710.779 62.6622C710.779 61.2304 709.622 60.0698 708.195 60.0698C706.767 60.0698 705.61 61.2304 705.61 62.6622C705.61 64.0939 706.767 65.2545 708.195 65.2545Z" fill="#004876"/>
<path d="M730.162 65.2545C731.589 65.2545 732.746 64.0939 732.746 62.6622C732.746 61.2304 731.589 60.0698 730.162 60.0698C728.734 60.0698 727.577 61.2304 727.577 62.6622C727.577 64.0939 728.734 65.2545 730.162 65.2545Z" fill="#004876"/>
<path d="M751.805 65.2545C753.232 65.2545 754.39 64.0939 754.39 62.6622C754.39 61.2304 753.232 60.0698 751.805 60.0698C750.378 60.0698 749.221 61.2304 749.221 62.6622C749.221 64.0939 750.378 65.2545 751.805 65.2545Z" fill="#004876"/>
<path d="M773.772 65.2545C775.199 65.2545 776.356 64.0939 776.356 62.6622C776.356 61.2304 775.199 60.0698 773.772 60.0698C772.345 60.0698 771.188 61.2304 771.188 62.6622C771.188 64.0939 772.345 65.2545 773.772 65.2545Z" fill="#004876"/>
<path d="M795.416 65.2545C796.843 65.2545 798 64.0939 798 62.6622C798 61.2304 796.843 60.0698 795.416 60.0698C793.988 60.0698 792.831 61.2304 792.831 62.6622C792.831 64.0939 793.988 65.2545 795.416 65.2545Z" fill="#004876"/>
<path d="M664.584 86.9652C666.012 86.9652 667.169 85.8046 667.169 84.3729C667.169 82.9412 666.012 81.7805 664.584 81.7805C663.157 81.7805 662 82.9412 662 84.3729C662 85.8046 663.157 86.9652 664.584 86.9652Z" fill="#004876"/>
<path d="M686.551 86.9652C687.978 86.9652 689.135 85.8046 689.135 84.3729C689.135 82.9412 687.978 81.7805 686.551 81.7805C685.124 81.7805 683.967 82.9412 683.967 84.3729C683.967 85.8046 685.124 86.9652 686.551 86.9652Z" fill="#004876"/>
<path d="M708.195 86.9652C709.622 86.9652 710.779 85.8046 710.779 84.3729C710.779 82.9412 709.622 81.7805 708.195 81.7805C706.767 81.7805 705.61 82.9412 705.61 84.3729C705.61 85.8046 706.767 86.9652 708.195 86.9652Z" fill="#004876"/>
<path d="M730.162 86.9652C731.589 86.9652 732.746 85.8046 732.746 84.3729C732.746 82.9412 731.589 81.7805 730.162 81.7805C728.734 81.7805 727.577 82.9412 727.577 84.3729C727.577 85.8046 728.734 86.9652 730.162 86.9652Z" fill="#004876"/>
<path d="M751.805 86.9652C753.232 86.9652 754.39 85.8046 754.39 84.3729C754.39 82.9412 753.232 81.7805 751.805 81.7805C750.378 81.7805 749.221 82.9412 749.221 84.3729C749.221 85.8046 750.378 86.9652 751.805 86.9652Z" fill="#004876"/>
<path d="M773.772 86.9652C775.199 86.9652 776.356 85.8046 776.356 84.3729C776.356 82.9412 775.199 81.7805 773.772 81.7805C772.345 81.7805 771.188 82.9412 771.188 84.3729C771.188 85.8046 772.345 86.9652 773.772 86.9652Z" fill="#004876"/>
<path d="M795.416 86.9652C796.843 86.9652 798 85.8046 798 84.3729C798 82.9412 796.843 81.7805 795.416 81.7805C793.988 81.7805 792.831 82.9412 792.831 84.3729C792.831 85.8046 793.988 86.9652 795.416 86.9652Z" fill="#004876"/>
<path d="M664.584 109C666.012 109 667.169 107.839 667.169 106.408C667.169 104.976 666.012 103.815 664.584 103.815C663.157 103.815 662 104.976 662 106.408C662 107.839 663.157 109 664.584 109Z" fill="#004876"/>
<path d="M686.551 109C687.978 109 689.135 107.839 689.135 106.408C689.135 104.976 687.978 103.815 686.551 103.815C685.124 103.815 683.967 104.976 683.967 106.408C683.967 107.839 685.124 109 686.551 109Z" fill="#004876"/>
<path d="M708.195 109C709.622 109 710.779 107.839 710.779 106.408C710.779 104.976 709.622 103.815 708.195 103.815C706.767 103.815 705.61 104.976 705.61 106.408C705.61 107.839 706.767 109 708.195 109Z" fill="#004876"/>
<path d="M730.162 109C731.589 109 732.746 107.839 732.746 106.408C732.746 104.976 731.589 103.815 730.162 103.815C728.734 103.815 727.577 104.976 727.577 106.408C727.577 107.839 728.734 109 730.162 109Z" fill="#004876"/>
<path d="M751.805 109C753.232 109 754.39 107.839 754.39 106.408C754.39 104.976 753.232 103.815 751.805 103.815C750.378 103.815 749.221 104.976 749.221 106.408C749.221 107.839 750.378 109 751.805 109Z" fill="#004876"/>
<path d="M773.772 109C775.199 109 776.356 107.839 776.356 106.408C776.356 104.976 775.199 103.815 773.772 103.815C772.345 103.815 771.188 104.976 771.188 106.408C771.188 107.839 772.345 109 773.772 109Z" fill="#004876"/>
<path d="M795.416 109C796.843 109 798 107.839 798 106.408C798 104.976 796.843 103.815 795.416 103.815C793.988 103.815 792.831 104.976 792.831 106.408C792.831 107.839 793.988 109 795.416 109Z" fill="#004876"/>
</g>
<path d="M776.741 26.5014C784.064 26.5014 790 20.5689 790 13.2507C790 5.93254 784.064 0 776.741 0C769.418 0 763.482 5.93254 763.482 13.2507C763.482 20.5689 769.418 26.5014 776.741 26.5014Z" fill="#004876"/>
<path d="M747.247 34.3438C743.865 36.6424 742.918 41.2396 745.218 44.6198C747.518 48.0001 752.118 48.9466 755.5 46.648C758.882 44.3494 759.829 39.7522 757.529 36.3719C755.365 32.9917 750.629 32.0452 747.247 34.3438ZM754.147 44.4846C751.982 45.9719 749.006 45.4311 747.518 43.1325C746.029 40.9691 746.571 37.9945 748.871 36.5072C751.035 35.0198 754.012 35.5607 755.5 37.8593C756.853 40.0227 756.312 42.9973 754.147 44.4846Z" fill="white"/>
<path d="M17.6661 191.198C10.593 189.303 3.32361 193.497 1.42953 200.565C-0.464551 207.634 3.7339 214.901 10.807 216.796C17.8802 218.691 25.1495 214.497 27.0436 207.429C28.9377 200.36 24.7392 193.093 17.6661 191.198Z" fill="#004876"/>
<path d="M48.185 191.256C52.047 189.911 54.1516 185.716 52.8049 181.856C51.4581 177.995 47.2598 175.89 43.3978 177.235C39.5358 178.58 37.4311 182.776 38.7779 186.636C39.994 190.461 44.3229 192.601 48.185 191.256ZM44.1447 179.675C46.6206 178.799 49.3557 180.092 50.1983 182.697C51.0759 185.172 49.7832 187.905 47.1767 188.746C44.7008 189.623 41.9657 188.33 41.1231 185.725C40.3762 183.285 41.6688 180.552 44.1447 179.675Z" fill="white"/>
</svg>
