<svg width="13" height="16" viewBox="0 0 13 16" fill="none" xmlns="http://www.w3.org/2000/svg">
<path fill-rule="evenodd" clip-rule="evenodd" d="M6.50114 11.4453L1.36523 15.7863C1.12556 15.989 0.788702 16.0355 0.50091 15.9054C0.214061 15.7754 0.0310059 15.4924 0.0310059 15.1808C0.0310059 15.1808 0.0310059 7.30019 0.0310059 3.21589C0.0310059 1.45414 1.4794 0.0259876 3.2656 0.0259876H9.73572C11.5229 0.0259876 12.9713 1.45414 12.9713 3.21589V15.1808C12.9713 15.4924 12.7873 15.7754 12.5004 15.9054C12.2136 16.0355 11.8758 15.989 11.6361 15.7863L6.50114 11.4453ZM11.354 3.21589C11.354 2.33502 10.6293 1.62052 9.73572 1.62052C7.82592 1.62052 5.17635 1.62052 3.2656 1.62052C2.37203 1.62052 1.6483 2.33502 1.6483 3.21589V13.4469L5.97461 9.78911C6.2775 9.53321 6.72382 9.53321 7.02671 9.78911L11.354 13.4469V3.21589Z" fill="#00A1AF"/>
</svg>
