<svg width="15" height="16" viewBox="0 0 15 16" fill="none" xmlns="http://www.w3.org/2000/svg">
<g clip-path="url(#clip0)">
<path fill-rule="evenodd" clip-rule="evenodd" d="M9.57009 1.61992V0.82241C9.57009 0.382186 9.92738 0.0249023 10.3676 0.0249023C10.8078 0.0249023 11.1651 0.382186 11.1651 0.82241V1.61992C12.9268 1.61992 14.3551 3.04825 14.3551 4.80995V12.785C14.3551 14.5467 12.9268 15.9751 11.1651 15.9751C8.88424 15.9751 5.47011 15.9751 3.19003 15.9751C1.42834 15.9751 0 14.5467 0 12.785V4.80995C0 3.04825 1.42834 1.61992 3.19003 1.61992V0.82241C3.19003 0.382186 3.54731 0.0249023 3.98754 0.0249023C4.42776 0.0249023 4.78505 0.382186 4.78505 0.82241V1.61992H9.57009ZM12.7601 7.99998H1.59502V12.785C1.59502 13.6655 2.30878 14.38 3.19003 14.38H11.1651C12.0456 14.38 12.7601 13.6655 12.7601 12.785V7.99998ZM11.1651 3.21493V4.01244C11.1651 4.45267 10.8078 4.80995 10.3676 4.80995C9.92738 4.80995 9.57009 4.45267 9.57009 4.01244V3.21493H4.78505V4.01244C4.78505 4.45267 4.42776 4.80995 3.98754 4.80995C3.54731 4.80995 3.19003 4.45267 3.19003 4.01244V3.21493C2.30878 3.21493 1.59502 3.9287 1.59502 4.80995V6.40496H12.7601V4.80995C12.7601 3.9287 12.0456 3.21493 11.1651 3.21493Z" fill="#2D363F"/>
</g>
<defs>
<clipPath id="clip0">
<rect width="14.3551" height="16" fill="white"/>
</clipPath>
</defs>
</svg>
