<svg width="39" height="32" viewBox="0 0 39 32" fill="none" xmlns="http://www.w3.org/2000/svg">
<g clip-path="url(#clip0)">
<path d="M38.1005 8.22675C38.0862 7.75866 37.7806 7.3414 37.322 7.19688C37.0931 7.12462 37.3462 7.14516 29.3996 7.14516C26.5058 2.7992 21.5896 0.000999451 16.0744 0.000999451C7.21091 0.000999451 0 7.17857 0 16.0009C0 24.8233 7.21091 32.0009 16.0744 32.0009C21.5943 32.0009 26.5085 29.1987 29.3996 24.8567H36.986C37.6025 24.8567 38.1022 24.3569 38.1022 23.7404C38.1022 10.1508 38.1032 8.31501 38.1005 8.22675ZM33.7846 9.37771L27.2294 14.5819L20.524 9.37771H33.7846ZM16.0744 29.7683C8.44201 29.7683 2.23262 23.5923 2.23262 16.0009C2.23262 8.4096 8.44201 2.23355 16.0744 2.23355C20.2116 2.23355 24.0228 4.03849 26.6189 7.14516C16.6115 7.14516 17.2746 7.143 17.1881 7.14903C16.6412 7.18653 16.2006 7.61816 16.1537 8.16528C16.1466 8.24796 16.1488 7.76968 16.1488 14.2892H10.7163C10.0998 14.2892 9.60004 14.789 9.60004 15.4055C9.60004 16.022 10.0998 16.5218 10.7163 16.5218H16.1488V23.7404C16.1488 24.3568 16.6486 24.8566 17.2651 24.8566H26.6189C24.0228 27.9634 20.2116 29.7683 16.0744 29.7683ZM18.3814 22.6242V10.5408L26.5528 16.8827C26.9583 17.1976 27.5277 17.1955 27.9312 16.8751L35.8697 10.5729V22.6242H18.3814Z" fill="#004876"/>
<path d="M9.52546 11.7582H11.3115C11.928 11.7582 12.4278 11.2584 12.4278 10.6419C12.4278 10.0254 11.928 9.52565 11.3115 9.52565H9.52546C8.90897 9.52565 8.40918 10.0254 8.40918 10.6419C8.40918 11.2584 8.90897 11.7582 9.52546 11.7582Z" fill="#004876"/>
<path d="M10.7167 19.0511H7.1446C6.52812 19.0511 6.02832 19.5509 6.02832 20.1674C6.02832 20.7839 6.52812 21.2837 7.1446 21.2837H10.7167C11.3332 21.2837 11.833 20.7839 11.833 20.1674C11.833 19.5509 11.3332 19.0511 10.7167 19.0511Z" fill="#004876"/>
</g>
<defs>
<clipPath id="clip0">
<rect width="38.1024" height="32" fill="white"/>
</clipPath>
</defs>
</svg>
