<svg
   xmlns:dc="http://purl.org/dc/elements/1.1/"
   xmlns:cc="http://creativecommons.org/ns#"
   xmlns:rdf="http://www.w3.org/1999/02/22-rdf-syntax-ns#"
   xmlns:svg="http://www.w3.org/2000/svg"
   xmlns="http://www.w3.org/2000/svg"
   xmlns:sodipodi="http://sodipodi.sourceforge.net/DTD/sodipodi-0.dtd"
   xmlns:inkscape="http://www.inkscape.org/namespaces/inkscape"
   width="73.41980743mm"
   height="57.37095642mm"
   viewBox="0 0 260.148924 203.2829165"
   id="svg6745"
   version="1.1"
   inkscape:version="0.91 r13725"
   sodipodi:docname="Sonra.favicon.svg">
  <defs
     id="defs6747" />
  <sodipodi:namedview
     id="base"
     pagecolor="#ffffff"
     bordercolor="#666666"
     borderopacity="1.0"
     inkscape:pageopacity="0.0"
     inkscape:pageshadow="2"
     inkscape:zoom="1.313285251"
     inkscape:cx="360.9269194"
     inkscape:cy="100.108116"
     inkscape:document-units="px"
     inkscape:current-layer="svg6745"
     showgrid="false"
     fit-margin-top="0"
     fit-margin-left="0"
     fit-margin-right="0"
     fit-margin-bottom="0"
     inkscape:window-width="1440"
     inkscape:window-height="851"
     inkscape:window-x="0"
     inkscape:window-y="23"
     inkscape:window-maximized="0" />
  <metadata
     id="metadata6750">
    <rdf:RDF>
      <cc:Work
         rdf:about="">
        <dc:format>image/svg+xml</dc:format>
        <dc:type
           rdf:resource="http://purl.org/dc/dcmitype/StillImage" />
        <dc:title></dc:title>
      </cc:Work>
    </rdf:RDF>
  </metadata>
  <g
     inkscape:label="Layer 1"
     inkscape:groupmode="layer"
     id="layer1"
     transform="translate(1.788214307e-4,-846.1746147)">
    <g
       transform="translate(0,846.1746147)"
       id="Logo">
      <path
         inkscape:connector-curvature="0"
         style="fill:#007481"
         id="p40"
         d="m 227.12784,64.19809 c -20.51636,-18.926519 -45.3434,-33.340312 -72.274,-40.863361 -10.28809,-2.868672 -20.87225,-4.740901 -31.54399,-5.308639 -1.32633,-2.42433 -2.65266,-4.84866 -3.97899,-7.27299 23.58325,1.67094 46.72198,8.120729 68.12842,18.075309 20.98865,9.768924 40.29616,23.067419 57.09057,38.987691 -5.80734,-1.206003 -11.61467,-2.412007 -17.42201,-3.61801 z m -180.20388,-34.1899 c -2.297137,2.300709 -4.340312,4.862398 -6.009,7.65501 -11.053333,-0.92067 -22.106667,-1.84134 -33.16,-2.76201 2.476948,-3.732449 5.459629,-7.117578 8.767,-10.134 10.134,1.747 20.268,3.494 30.402,5.241 z m 26.78171,-2.1943 c -2.17677,1.451604 -4.22631,3.100698 -6.067,4.962 -5.696003,-1.046667 -11.392007,-2.093333 -17.08801,-3.14 2.395935,-2.288173 5.044735,-4.30471 7.847,-6.069 5.10267,1.415667 10.20534,2.831333 15.30801,4.247 z m -27.21311,58.3282 c 2.847669,4.264508 6.062548,8.276756 9.50899,12.07102 -9.511667,6.044 -19.023333,12.08799 -28.535,18.13199 -4.798717,-5.01427 -9.274933,-10.34911 -13.22899,-16.057 10.751667,-4.715337 21.503333,-9.430673 32.255,-14.14601 z m -10.2968,-25.77159 c 0.431141,3.788547 1.377918,7.508342 2.68699,11.08602 -11.711333,3.016997 -23.422667,6.033993 -35.134,9.05099 -1.7712666,-4.836648 -3.01597798,-9.880967 -3.512,-15.01299 11.986337,-1.708007 23.972673,-3.416013 35.95901,-5.12402 z m 3.2349,12.5253 c 1.627951,4.106116 3.710843,8.022484 6.083,11.74501 -10.878667,4.544667 -21.757333,9.089333 -32.636,13.634 -3.2891521,-4.989977 -6.1667241,-10.266401 -8.38499,-15.821 11.645997,-3.186003 23.291993,-6.372007 34.93799,-9.55801 z m -2.8325,-24.00551 c -0.654093,3.334058 -0.807849,6.758843 -0.533,10.14301 -11.989663,1.549667 -23.979327,3.099333 -35.96899,4.649 -0.28594814,-4.593066 0.05916046,-9.232318 1.108,-13.716 11.797997,-0.35867 23.595993,-0.71734 35.39399,-1.07601 z m 45.4083,-25.5159 c -2.577696,1.099252 -5.079955,2.382074 -7.44699,3.884 -5.02167,-1.455663 -10.04334,-2.911327 -15.06501,-4.36699 3.033977,-1.817962 6.227571,-3.362744 9.51,-4.677 4.334,1.719997 8.668,3.439993 13.002,5.15999 z m -26.0441,-0.4836 c -2.904302,1.815264 -5.654892,3.886516 -8.142,6.24401 -10.002333,-1.837667 -20.004667,-3.675333 -30.007,-5.513 3.575705,-3.084261 7.48656,-5.7684 11.59,-8.09999 8.853,2.456327 17.706,4.912653 26.559,7.36898 z m 10.9855,-5.49249 c -3.397342,1.347751 -6.704546,2.931853 -9.84801,4.79901 -8.698333,-2.521337 -17.396667,-5.042673 -26.095,-7.56401 4.403744,-2.378439 9.009066,-4.37322 13.722,-6.05299 7.407003,2.93933 14.814007,5.87866 22.22101,8.81799 z m 24.6154,2.75519 c -2.903947,0.753977 -5.766191,1.675457 -8.548,2.80102 -4.243333,-1.74667 -8.486667,-3.49334 -12.73,-5.24001 3.516288,-1.335286 7.125831,-2.418429 10.783,-3.29399 3.498333,1.910993 6.996667,3.821987 10.495,5.73298 z m -12.14521,-6.63379 c -3.778996,0.892887 -7.509605,2.000292 -11.14501,3.36699 -7.239663,-2.98 -14.479327,-5.96 -21.71899,-8.94 4.978766,-1.6750178 10.067627,-3.0151803 15.213,-4.069 5.883667,3.2140033 11.767333,6.428007 17.651,9.64201 z m 33.871,3.76709 c -3.33752,0.08155 -6.67233,0.305928 -9.988,0.69802 -2.535,-2.003 -5.07,-4.006 -7.605,-6.009 4.086634,-0.415304 8.19273,-0.632919 12.29999,-0.67399 1.76434,1.99499 3.52867,3.98998 5.29301,5.98497 z m -11.20838,0.8493 c -3.156298,0.4135 -6.293781,0.98045 -9.38701,1.73401 -3.403,-1.926 -6.806,-3.852 -10.209,-5.778 3.860502,-0.862693 7.769411,-1.502795 11.69901,-1.95299 2.632333,1.998993 5.264667,3.997987 7.897,5.99698 z m -9.12992,-6.9331 c -4.053294,0.453343 -8.085911,1.102674 -12.069,1.98201 -5.712333,-3.2326667 -11.424667,-6.4653333 -17.137,-9.698 5.337741,-1.0173365 10.73087,-1.735779 16.144,-2.203 4.354,3.30633 8.708,6.61266 13.062,9.91899 z" />
      <path
         inkscape:connector-curvature="0"
         style="fill:#00a1af"
         id="p42"
         d="m 260.14874,66.87599 c -21.78702,-20.197585 -47.11665,-36.575714 -74.53364,-48.031498 -24.87581,-10.3962575 -51.43654,-16.9286289 -78.36957,-18.59681026 -1.69353,-0.10281591 -3.38827,-0.18556907 -5.08378,-0.24768174 2.74633,3.4606667 5.49267,6.9213333 8.239,10.382 21.33345,0.318206 42.49906,4.830342 62.44438,12.303035 24.55462,9.216876 47.27514,23.171822 66.81962,40.640975 6.828,1.183327 13.65599,2.366653 20.48399,3.54998 z" />
      <path
         inkscape:connector-curvature="0"
         style="fill:#004876"
         id="p102"
         d="m 231.28085,68.1353 c -17.95,-17.561579 -39.42613,-31.61538 -62.97973,-40.411931 -12.20203,-4.557424 -24.94349,-7.739533 -37.90326,-9.130069 0.36,1.207 0.72,2.414 1.08,3.621 18.66875,1.876804 36.795,7.94433 53.28389,16.807374 13.28552,7.153582 25.51896,16.216034 36.3871,26.673626 3.37733,0.813333 6.75467,1.626667 10.132,2.44 z m -35.2151,130.8376 c 7.19967,1.59651 14.43489,3.03273 21.69798,4.31001 -5.21333,-10.35834 -10.42665,-20.71667 -15.63998,-31.07501 -5.9916,-1.44488 -11.95403,-3.01091 -17.882,-4.698 3.94133,10.48767 7.88267,20.97533 11.824,31.463 z m -41.4059,-61.88831 c 6.14151,2.42971 12.35032,4.68857 18.612,6.789 2.33533,6.58767 4.67067,13.17533 7.006,19.763 -7.46747,-2.22482 -14.87555,-4.64981 -22.20801,-7.28599 -1.13666,-6.422 -2.27333,-12.84401 -3.40999,-19.26601 z m -19.74339,-10.4186 c 5.6457,2.69566 11.37502,5.2152 17.16899,7.575 -0.628,-4.09033 -1.256,-8.18067 -1.884,-12.271 -4.98653,-2.1444 -9.91681,-4.42054 -14.77301,-6.846 -0.17066,3.84733 -0.34132,7.69467 -0.51198,11.542 z m 23.68289,32.67581 c 7.51381,2.66031 15.1051,5.10071 22.75599,7.33601 3.722,10.49833 7.444,20.99667 11.166,31.495 -9.52476,-2.18483 -18.98497,-4.65226 -28.36,-7.40998 -1.854,-10.47368 -3.70799,-20.94735 -5.56199,-31.42103 z m -23.76379,-30.84781 c 5.77,2.73575 11.62605,5.28888 17.547,7.68 0.982,6.393 1.964,12.786 2.946,19.179 -7.18463,-2.64504 -14.29396,-5.49621 -21.30302,-8.577 0.27001,-6.094 0.54001,-12.188 0.81002,-18.282 z m -24.03221,10.0666 c 6.68809,3.54563 13.50831,6.84026 20.42699,9.911 -0.71733,10.13467 -1.43466,20.26934 -2.15199,30.40401 -9.09251,-3.51412 -18.06417,-7.34355 -26.87299,-11.519 2.866,-9.59867 5.73199,-19.19734 8.59799,-28.79601 z m 6.32671,-21.18989 c 5.14123,2.94435 10.38923,5.70087 15.71498,8.29601 0.27,-3.81233 0.54,-7.62467 0.81,-11.437 -4.53899,-2.31165 -9.01144,-4.75544 -13.391,-7.357 -1.04466,3.49933 -2.08932,6.99866 -3.13398,10.49799 z m -29.20751,-20.25211 c 3.785616,3.25198 7.741714,6.30258 11.81,9.192 1.94233,-3.032 3.88467,-6.06399 5.827,-9.09599 -3.41833,-2.498189 -6.740688,-5.13017 -9.92,-7.92701 -2.572333,2.610333 -5.144667,5.220667 -7.717,7.831 z m 12.53881,11.80701 c 4.62963,3.19507 9.39509,6.19136 14.25799,9.01801 -1.831,5.55566 -3.662,11.11133 -5.493,16.66699 -6.07211,-3.32484 -12.024952,-6.87024 -17.811,-10.67199 3.015337,-5.00434 6.030673,-10.00867 9.04601,-15.01301 z m -13.7778,-10.54981 c 3.883944,3.32379 7.942837,6.44009 12.11699,9.39001 -3.156997,4.92833 -6.313993,9.85666 -9.47099,14.78499 -5.267496,-3.54331 -10.386703,-7.31079 -15.29101,-11.343 4.215003,-4.27733 8.430007,-8.55467 12.64501,-12.832 z m 3.2909,27.9542 c 5.971618,3.89358 12.11631,7.51891 18.38199,10.918 -3.136,9.51466 -6.27199,19.02933 -9.40799,28.54399 -8.420725,-4.09642 -16.686105,-8.51695 -24.72801,-13.31598 5.251337,-8.71534 10.502673,-17.43067 15.75401,-26.14601 z m -17.96231,-13.06589 c 5.07026,4.14227 10.363539,8.00756 15.80699,11.644 -5.508997,8.59966 -11.017993,17.19933 -16.52699,25.79899 -7.447504,-4.56209 -14.695212,-9.45659 -21.645,-14.74799 7.455,-7.565 14.91,-15.13 22.365,-22.695 z m -2.98329,-37.0049 c 2.108502,3.2403 4.483189,6.302648 7.028,9.21101 3.218663,-2.045333 6.437327,-4.090667 9.65599,-6.136 -2.126315,-2.472398 -4.109193,-5.071963 -5.873,-7.81602 -3.603663,1.580337 -7.207327,3.160673 -10.81099,4.74101 z m 8.0665,10.37799 c 2.973685,3.290274 6.161338,6.383414 9.48701,9.31601 2.645,-2.555333 5.29,-5.110667 7.935,-7.666 -2.782439,-2.511447 -5.448818,-5.154709 -7.93701,-7.95899 -3.161667,2.102993 -6.323333,4.205987 -9.485,6.30898 z m 6.20059,-62.7513 c -2.510263,1.077184 -4.946457,2.334033 -7.25,3.80401 3.102667,0.899337 6.205333,1.798673 9.308,2.69801 1.914197,-1.266845 3.944943,-2.352307 6.03999,-3.28801 -2.69933,-1.071337 -5.39866,-2.142673 -8.09799,-3.21401 z m -21.39969,42.864 c 1.25429,3.174409 2.841481,6.211113 4.646,9.10601 -6.035667,2.521337 -12.071333,5.042673 -18.107,7.56401 -2.292858,-3.607567 -4.305399,-7.40248 -5.88099,-11.37901 6.44733,-1.76367 12.89466,-3.52734 19.34199,-5.29101 z m -0.6059,-9.95559 c 0.360435,2.854211 1.087777,5.654916 2.074,8.35501 3.908667,-1.007 7.817333,-2.014 11.726,-3.021 -0.831654,-2.279081 -1.452297,-4.64078 -1.76899,-7.04801 -4.010337,0.571333 -8.020673,1.142667 -12.03101,1.714 z m 14.27799,30.85829 c 3.053897,3.366602 6.324733,6.532969 9.73999,9.531 -4.337667,4.19067 -8.675333,8.38134 -13.013,12.57201 -4.336096,-3.66576 -8.493995,-7.54776 -12.37199,-11.697 5.215,-3.46867 10.43,-6.93734 15.645,-10.40601 z m -16.21769,-30.58139 c 0.366546,2.92635 1.111031,5.798308 2.123,8.56601 -6.483333,1.669997 -12.966667,3.339993 -19.45,5.00999 -1.267714,-3.4649 -2.187368,-7.066498 -2.61,-10.735 6.645667,-0.947 13.291333,-1.894 19.937,-2.841 z m 2.0785,-8.93581 c -0.427289,2.52434 -0.492072,5.104886 -0.25,7.65201 4.014333,-0.519003 8.028667,-1.038007 12.043,-1.55701 -0.218984,-2.147454 -0.184089,-4.323988 0.14899,-6.458 -3.980663,0.121 -7.961327,0.242 -11.94199,0.363 z m 0.711,-7.8508 c -1.130454,2.20006 -1.959753,4.554455 -2.459,6.97701 -6.553333,0.122 -13.106667,0.244 -19.66,0.366 0.691753,-3.035504 1.813996,-5.9712 3.312,-8.7 6.269,0.45233 12.538,0.90466 18.807,1.35699 z m -2.6343,7.90941 c -0.443322,2.587009 -0.513617,5.23253 -0.268,7.84401 -6.651,0.859663 -13.302,1.719327 -19.953,2.57899 -0.27268,-3.276309 -0.130346,-6.592531 0.49099,-9.823 6.57667,-0.2 13.15334,-0.4 19.73001,-0.6 z m 4.4731,-7.7771 c -1.096135,2.148266 -1.900662,4.445218 -2.38,6.809 3.96833,-0.074 7.93666,-0.148 11.90499,-0.222 0.378867,-1.994121 1.022961,-3.938008 1.916,-5.76101 -3.813663,-0.27533 -7.627327,-0.55066 -11.44099,-0.82599 z m 4.695,-6.65991 c -1.650049,1.77508 -3.102424,3.73879 -4.27201,5.86301 3.787,0.315667 7.574,0.631333 11.361,0.947 0.951809,-1.799301 2.138757,-3.470994 3.498,-4.985 -3.528997,-0.608337 -7.057993,-1.216673 -10.58699,-1.82501 z m 23.93651,-13.0313 c -2.830754,0.740612 -5.62082,1.644239 -8.33101,2.749 2.645667,1.089 5.291333,2.178 7.937,3.267 2.272728,-0.962712 4.6153,-1.756913 6.99501,-2.41 -2.200333,-1.202 -4.400667,-2.404 -6.601,-3.606 z m 10.26278,-1.98779 c -3.08038,0.40839 -6.141552,0.968558 -9.16,1.708 2.142663,1.212667 4.285327,2.425333 6.42799,3.638 2.55099,-0.659138 5.14143,-1.161227 7.74901,-1.536 -1.67233,-1.27 -3.34467,-2.54 -5.017,-3.81 z m 10.95061,-0.84691 c -3.26126,0.08425 -6.51952,0.309463 -9.759,0.69701 1.61267,1.274003 3.22533,2.548007 4.838,3.82201 2.75995,-0.359326 5.53759,-0.579407 8.31899,-0.67601 -1.13266,-1.281003 -2.26533,-2.562007 -3.39799,-3.84301 z m 11.4088,0.25101 c -3.37975,-0.227931 -6.76876,-0.327399 -10.156,-0.27599 1.07267,1.278667 2.14533,2.557333 3.218,3.836 2.90822,-0.07166 5.8191,-0.01078 8.72299,0.15999 -0.595,-1.24 -1.18999,-2.48 -1.78499,-3.72 z" />
    </g>
  </g> 
</svg>
