<svg width="32" height="32" viewBox="0 0 32 32" fill="none" xmlns="http://www.w3.org/2000/svg">
<path fill-rule="evenodd" clip-rule="evenodd" d="M4 30V1C4 0.448 4.447 0 5 0H17C17.552 0 18 0.448 18 1V6H27C27.552 6 28 6.448 28 7V30H31C31.551 30 32 30.448 32 31C32 31.552 31.551 32 31 32H1C0.448 32 0 31.552 0 31C0 30.448 0.448 30 1 30H4ZM16 30V2H6V30H7.997V25C7.997 24.448 8.445 24 8.997 24H12.997C13.549 24 13.997 24.448 13.997 25V30H16ZM9.997 26V30H11.997V26H9.997ZM18 8V30H26V8H18ZM20.997 28H22.997C23.549 28 23.997 27.552 23.997 27C23.997 26.448 23.549 26 22.997 26H20.997C20.445 26 19.997 26.448 19.997 27C19.997 27.552 20.445 28 20.997 28ZM20.997 24H22.997C23.549 24 23.997 23.552 23.997 23C23.997 22.448 23.549 22 22.997 22H20.997C20.445 22 19.997 22.448 19.997 23C19.997 23.552 20.445 24 20.997 24ZM8.997 22H12.997C13.549 22 13.997 21.552 13.997 21C13.997 20.448 13.549 20 12.997 20H8.997C8.445 20 7.997 20.448 7.997 21C7.997 21.552 8.445 22 8.997 22ZM20.997 20H22.997C23.549 20 23.997 19.552 23.997 19C23.997 18.448 23.549 18 22.997 18H20.997C20.445 18 19.997 18.448 19.997 19C19.997 19.552 20.445 20 20.997 20ZM8.997 18H12.997C13.549 18 13.997 17.552 13.997 17C13.997 16.448 13.549 16 12.997 16H8.997C8.445 16 7.997 16.448 7.997 17C7.997 17.552 8.445 18 8.997 18ZM20.997 16H22.997C23.549 16 23.997 15.552 23.997 15C23.997 14.448 23.549 14 22.997 14H20.997C20.445 14 19.997 14.448 19.997 15C19.997 15.552 20.445 16 20.997 16ZM8.997 14H12.997C13.549 14 13.997 13.552 13.997 13C13.997 12.448 13.549 12 12.997 12H8.997C8.445 12 7.997 12.448 7.997 13C7.997 13.552 8.445 14 8.997 14ZM12.997 8C13.549 8 13.997 8.448 13.997 9C13.997 9.552 13.549 10 12.997 10H8.997H8.962L8.931 9.99799L8.899 9.995L8.868 9.99199L8.836 9.987L8.806 9.98199L8.769 9.974L8.735 9.965L8.7 9.95499L8.665 9.944L8.636 9.933L8.608 9.92099L8.58 9.909L8.553 9.896L8.526 9.88199L8.499 9.868L8.473 9.85199L8.448 9.836L8.423 9.819L8.399 9.80099L8.375 9.78299L8.347 9.75999L8.32 9.73599L8.294 9.711L8.269 9.68599L8.243 9.657L8.22 9.62999L8.198 9.601L8.177 9.57199L8.16 9.54799L8.144 9.52199L8.12901 9.49599L8.114 9.46999L8.1 9.44299L8.085 9.40999L8.07 9.37599L8.057 9.34099L8.04601 9.30899L8.035 9.27399L8.027 9.24399L8.02 9.21399L8.014 9.183L8.009 9.15199L8.00401 9.12099L8.001 9.09L7.999 9.058L7.997 9.02599V8.991L7.998 8.959L8 8.92799L8.002 8.89699L8.00401 8.879C8.06401 8.384 8.486 8 8.997 8H12.997Z" fill="#004876"/>
<path d="M12.9971 6H8.99707C8.44507 6 7.99707 5.552 7.99707 5C7.99707 4.448 8.44507 4 8.99707 4H12.9971C13.5491 4 13.9971 4.448 13.9971 5C13.9971 5.552 13.5491 6 12.9971 6Z" fill="#004876"/>
<path d="M22.9971 12H20.9971C20.4451 12 19.9971 11.552 19.9971 11C19.9971 10.448 20.4451 10 20.9971 10H22.9971C23.5491 10 23.9971 10.448 23.9971 11C23.9971 11.552 23.5491 12 22.9971 12Z" fill="#004876"/>
</svg>
