<svg width="24" height="24" viewBox="0 0 24 24" fill="none" xmlns="http://www.w3.org/2000/svg">
<path d="M11.9694 0C5.35886 0 0 5.35886 0 11.9694C0 18.5799 5.35886 23.9388 11.9694 23.9388C18.5799 23.9388 23.9388 18.5799 23.9388 11.9694C23.9388 5.35886 18.5799 0 11.9694 0ZM7.48457 20.0733H4.11967V9.24686H7.48457V20.0733ZM5.80286 7.76694C4.72433 7.76694 3.85127 6.89265 3.85127 5.81559C3.85151 4.73951 4.72433 3.86522 5.80286 3.86522C6.87845 3.86522 7.75273 4.73951 7.75273 5.81559C7.75273 6.8929 6.8782 7.76694 5.80286 7.76694ZM20.0873 20.0733H16.7251V14.8082C16.7251 13.5527 16.7018 11.9378 14.976 11.9378C13.226 11.9378 12.9568 13.3053 12.9568 14.7174V20.0731H9.59486V9.24686H12.8221V10.7263H12.8674C13.3168 9.87502 14.414 8.97771 16.0511 8.97771C19.4584 8.97771 20.0873 11.22 20.0873 14.135V20.0733Z" fill="#0E76A8"/>
</svg>
