<svg width="32" height="32" viewBox="0 0 32 32" fill="none" xmlns="http://www.w3.org/2000/svg">
<path d="M4.11827 23.8412L8.15842 27.8813C12.5803 32.3032 19.3862 33.2367 24.8126 30.3312C24.9707 30.2558 25.6901 29.8471 26.3361 29.3848C27.7355 28.3835 27.8875 26.3348 26.6617 25.1089L22.8049 21.2522C21.7084 20.1557 19.924 20.1555 18.8274 21.2522L17.5016 22.578C16.4025 23.6771 14.6235 23.6772 13.5241 22.578L9.42155 18.4755C8.32254 17.3765 8.32217 15.5978 9.42124 14.4983C9.4213 14.4983 9.42136 14.4983 9.42136 14.4982L9.42168 14.4979L10.7474 13.1722C11.844 12.0756 11.844 10.2913 10.7474 9.19466L6.89072 5.33795C5.66528 4.1125 3.61639 4.26363 2.61482 5.66345C-1.3247 11.1689 -0.802634 18.9204 4.11827 23.8412ZM21.4791 22.5781L25.3358 26.4347C25.7398 26.8388 25.7062 27.53 25.245 27.86C25.0216 28.0198 24.794 28.1709 24.5626 28.3135L19.4902 23.2411L20.1532 22.578C20.5189 22.2124 21.1136 22.2125 21.4791 22.5781ZM12.1983 23.9038C13.8163 25.5217 16.2963 25.6969 18.0981 24.5007L22.8027 29.2053C18.3362 31.0243 12.9954 30.0668 9.48411 26.5555L5.44396 22.5154C1.93276 19.0041 0.975189 13.6632 2.7942 9.19678L7.49879 13.9014C6.30378 15.7013 6.47597 18.1815 8.09573 19.8012L12.1983 23.9038ZM5.5649 6.66383L9.42161 10.5205C9.78799 10.887 9.78805 11.48 9.42161 11.8464L8.75855 12.5094L3.68614 7.43702C3.82871 7.20559 3.97983 6.97796 4.13965 6.75458C4.46915 6.2942 5.16034 6.25927 5.5649 6.66383Z" fill="#004876"/>
<path d="M18.8745 1.87502C25.0778 1.87502 30.1246 6.9218 30.1246 13.1251C30.1246 13.6428 30.5443 14.0626 31.0621 14.0626C31.5798 14.0626 31.9996 13.6428 31.9996 13.1251C31.9996 5.88792 26.1117 7.62939e-06 18.8745 7.62939e-06C18.3568 7.62939e-06 17.937 0.41976 17.937 0.937513C17.937 1.45527 18.3568 1.87502 18.8745 1.87502Z" fill="#004876"/>
<path d="M18.8744 13.1242C18.8744 13.1242 18.8745 13.1245 18.8745 13.1251C18.8745 13.6428 19.2943 14.0626 19.812 14.0626C20.3298 14.0626 20.7495 13.6428 20.7495 13.1251C20.7495 12.0912 19.9084 11.2501 18.8745 11.2501C18.3568 11.2501 17.937 11.6694 17.937 12.1871C17.9369 12.7049 18.3566 13.1242 18.8744 13.1242Z" fill="#004876"/>
<path d="M18.8745 9.37505C20.9423 9.37505 22.6245 11.0573 22.6245 13.125C22.6245 13.6428 23.0443 14.0625 23.562 14.0625C24.0798 14.0625 24.4995 13.6428 24.4995 13.125C24.4995 10.0234 21.9761 7.50005 18.8745 7.50005C18.3568 7.50005 17.937 7.9198 17.937 8.43755C17.937 8.9553 18.3568 9.37505 18.8745 9.37505Z" fill="#004876"/>
<path d="M18.8745 5.62503C23.01 5.62503 26.3745 8.98953 26.3745 13.125C26.3745 13.6428 26.7943 14.0625 27.312 14.0625C27.8298 14.0625 28.2495 13.6428 28.2495 13.125C28.2495 7.95566 24.0439 3.75003 18.8745 3.75003C18.3568 3.75003 17.937 4.16978 17.937 4.68753C17.937 5.20528 18.3568 5.62503 18.8745 5.62503Z" fill="#004876"/>
</svg>
