<svg width="59" height="48" viewBox="0 0 59 48" fill="none" xmlns="http://www.w3.org/2000/svg">
<path d="M1.33494 19.3203C4.46313 8.19611 12.1802 0.12085 19.6816 0.12085C20.2841 0.12085 20.886 0.172997 21.4724 0.276108C21.805 0.334182 22.0958 0.528553 22.2758 0.810627C22.4552 1.09448 22.5058 1.43937 22.4146 1.76174L20.8705 7.25389C20.7215 7.78426 20.2072 8.14277 19.6726 8.11848L19.5499 8.11611C16.7679 8.11611 11.6838 12.2619 9.09195 21.4761C8.98945 21.8417 8.89231 22.2157 8.79874 22.6056C11.7082 21.1739 15.1791 20.8426 18.3222 21.7131C25.4129 23.6859 29.5667 31.0257 27.5846 38.0752C25.9779 43.7872 20.6935 47.7777 14.7339 47.7777C13.5199 47.7777 12.3078 47.6112 11.1307 47.2835C6.45483 45.984 2.93927 42.1238 1.23125 36.4165C-0.310501 31.2675 -0.271767 25.0364 1.33494 19.3203Z" fill="#CDD3DF"/>
<path d="M50.6042 0.122803C51.2055 0.122803 51.808 0.173765 52.3938 0.276876C52.7258 0.333765 53.0172 0.529321 53.1966 0.811395C53.376 1.09525 53.4266 1.44014 53.3361 1.76251L51.7913 7.25465C51.6423 7.78502 51.1376 8.14354 50.5934 8.11925L50.4719 8.11688C47.6899 8.11688 42.6052 12.2627 40.0134 21.4769C39.9103 21.8449 39.8131 22.2188 39.7202 22.6064C42.6308 21.1747 46.1005 20.8434 49.2436 21.7139C56.3331 23.6867 60.4882 31.0265 58.5048 38.076C56.8981 43.788 51.6137 47.7785 45.6541 47.7785C44.4402 47.7785 43.228 47.612 42.0504 47.2843C37.3751 45.9847 33.8595 42.1246 32.1509 36.4173C30.6097 31.2683 30.6479 25.0366 32.2552 19.3198C35.3852 8.19688 43.101 0.122803 50.6042 0.122803Z" fill="#CDD3DF"/>
</svg>
