<svg width="20" height="16" viewBox="0 0 20 16" fill="none" xmlns="http://www.w3.org/2000/svg">
<path d="M0.452453 6.44009C1.51286 2.73204 4.12882 0.0402832 6.67164 0.0402832C6.87589 0.0402832 7.07993 0.0576657 7.27871 0.0920361C7.39144 0.111394 7.49003 0.176184 7.55104 0.270209C7.61185 0.364826 7.62902 0.479789 7.59811 0.587246L7.07467 2.41796C7.02417 2.59475 6.84983 2.71426 6.66861 2.70616L6.627 2.70537C5.68397 2.70537 3.96053 4.0873 3.08195 7.1587C3.0472 7.28058 3.01427 7.40522 2.98255 7.5352C3.96882 7.05796 5.14538 6.94754 6.21084 7.23771C8.61447 7.89529 10.0226 10.3419 9.35063 12.6917C8.80599 14.5957 7.01467 15.9259 4.99447 15.9259C4.58296 15.9259 4.17205 15.8704 3.77306 15.7612C2.18801 15.328 0.996292 14.0413 0.417302 12.1389C-0.105324 10.4225 -0.0921936 8.34547 0.452453 6.44009Z" fill="white"/>
<path d="M17.154 0.0412903C17.3578 0.0412903 17.5621 0.0582778 17.7607 0.0926482C17.8732 0.111611 17.972 0.176796 18.0328 0.270821C18.0936 0.365438 18.1108 0.480401 18.0801 0.587858L17.5564 2.41857C17.5059 2.59536 17.3348 2.71487 17.1504 2.70677L17.1091 2.70598C16.1661 2.70598 14.4425 4.08791 13.5639 7.15932C13.5289 7.28198 13.496 7.40662 13.4645 7.53581C14.4512 7.05857 15.6273 6.94815 16.6928 7.23833C19.096 7.89591 20.5045 10.3425 19.8322 12.6924C19.2875 14.5964 17.4962 15.9265 15.476 15.9265C15.0645 15.9265 14.6536 15.871 14.2544 15.7618C12.6696 15.3286 11.4778 14.0419 10.8986 12.1395C10.3762 10.4231 10.3891 8.34588 10.934 6.4403C11.995 2.73265 14.6106 0.0412903 17.154 0.0412903Z" fill="white"/>
</svg>
