<svg width="42" height="32" viewBox="0 0 42 32" fill="none" xmlns="http://www.w3.org/2000/svg">
<path d="M0.888567 12.8917C3.14268 5.42226 8.70347 0 14.1088 0C14.543 0 14.9767 0.0350153 15.3993 0.104251C15.6389 0.143246 15.8485 0.273759 15.9781 0.463162C16.1074 0.653759 16.1439 0.88534 16.0782 1.1018L14.9655 4.78959C14.8582 5.14571 14.4876 5.38645 14.1024 5.37013L14.0139 5.36854C12.0093 5.36854 8.34575 8.15229 6.47813 14.3393C6.40426 14.5848 6.33426 14.8359 6.26684 15.0977C8.36336 14.1364 10.8644 13.914 13.1293 14.4985C18.2387 15.8231 21.2319 20.7516 19.8036 25.4851C18.6458 29.3205 14.838 32 10.5436 32C9.66885 32 8.79537 31.8882 7.94723 31.6681C4.57787 30.7955 2.04461 28.2035 0.813847 24.3713C-0.297108 20.9139 -0.269197 16.7299 0.888567 12.8917Z" fill="#CDD3DF"/>
<path d="M35.9504 0C36.3837 0 36.8178 0.0342204 37.2399 0.103458C37.4791 0.141658 37.6891 0.27297 37.8184 0.462378C37.9476 0.652979 37.9841 0.884566 37.9189 1.10103L36.8058 4.78891C36.6984 5.14505 36.3347 5.38579 35.9426 5.36947L35.855 5.36788C33.8505 5.36788 30.1866 8.1517 28.319 14.3389C28.2447 14.586 28.1747 14.8371 28.1078 15.0973C30.2051 14.1359 32.7052 13.9135 34.97 14.498C40.0784 15.8227 43.0724 20.7513 41.6433 25.4849C40.4855 29.3204 36.6778 32 32.3836 32C31.5088 32 30.6354 31.8882 29.7868 31.6681C26.418 30.7955 23.8848 28.2035 22.6536 24.3711C21.5431 20.9136 21.5706 16.7292 22.7288 12.8905C24.9841 5.4216 30.5439 0 35.9504 0Z" fill="#CDD3DF"/>
</svg>
