<svg width="16" height="16" viewBox="0 0 16 16" fill="none" xmlns="http://www.w3.org/2000/svg">
<path d="M6.54154 0.0085664H6.62223C7.88925 0.00537166 9.13174 0.358631 10.2084 1.02817C11.2851 1.69771 12.1527 2.65666 12.7126 3.79595C13.2725 4.93525 13.5022 6.20917 13.3756 7.47285C13.249 8.73652 12.7711 9.93922 11.9964 10.9442L15.7325 14.6082C15.8083 14.6826 15.8687 14.7712 15.9103 14.8689C15.9519 14.9667 15.9739 15.0717 15.9751 15.178C15.9762 15.2843 15.9564 15.3897 15.9169 15.4884C15.8773 15.587 15.8188 15.6768 15.7446 15.7528C15.6704 15.8287 15.5821 15.8893 15.4845 15.931C15.387 15.9727 15.2823 15.9947 15.1762 15.9959C15.0702 15.997 14.965 15.9772 14.8666 15.9376C14.7682 15.8979 14.6786 15.8393 14.6028 15.7649L10.8667 12.1008C9.68491 13.0591 8.21486 13.5893 6.69486 13.6053H6.61416C4.85507 13.5546 3.18438 12.821 1.95462 11.5592C0.724854 10.2974 0.0321875 8.60607 0.0227652 6.8421C0.0133438 5.07814 0.687904 3.37948 1.90412 2.10454C3.12033 0.829598 4.78308 0.0780857 6.54154 0.0085664ZM6.67872 11.9876C7.70198 11.9763 8.69892 11.661 9.54338 11.0817C10.3878 10.5023 11.0419 9.68485 11.4227 8.73279C11.8036 7.78072 11.8941 6.73681 11.6829 5.73314C11.4717 4.72947 10.9683 3.81115 10.2362 3.09438C9.50421 2.3776 8.57652 1.89459 7.57056 1.70644C6.56459 1.5183 5.52555 1.63349 4.58491 2.03743C3.64427 2.44138 2.84431 3.11592 2.28624 3.97571C1.72817 4.83551 1.43707 5.84191 1.44978 6.86759C1.4668 8.24127 2.02703 9.55203 3.00743 10.512C3.98783 11.472 5.30826 12.0027 6.67872 11.9876Z" fill="white"/>
</svg>
