<svg width="195" height="354" viewBox="0 0 195 354" fill="none" xmlns="http://www.w3.org/2000/svg">
<g style="mix-blend-mode:hard-light" opacity="0.4">
<path d="M508.786 41.8091C462.828 -0.587914 407.213 -32.876 346.886 -49.7283C323.84 -56.1544 300.131 -60.3483 276.225 -61.6201C273.254 -67.0508 270.283 -72.4815 267.312 -77.9122C320.14 -74.1692 371.973 -59.7211 419.925 -37.422C466.941 -15.5388 510.192 14.251 547.813 49.9138C534.804 47.2122 521.795 44.5106 508.786 41.8091ZM105.114 -34.7792C99.9683 -29.6254 95.3914 -23.887 91.6534 -17.6313C66.893 -19.6937 42.1326 -21.7561 17.3722 -23.8184C22.9207 -32.1794 29.6022 -39.7624 37.011 -46.5195C59.712 -42.606 82.413 -38.6926 105.114 -34.7792ZM165.107 -39.6946C160.231 -36.4429 155.64 -32.7488 151.517 -28.5793C138.757 -30.9239 125.998 -33.2685 113.238 -35.6132C118.605 -40.7389 124.539 -45.2561 130.816 -49.2082C142.247 -46.037 153.677 -42.8658 165.107 -39.6946ZM104.148 90.9655C110.527 100.518 117.728 109.506 125.449 118.006C104.142 131.545 82.8347 145.084 61.5278 158.623C50.7783 147.39 40.7512 135.44 31.8937 122.654C55.9784 112.091 80.063 101.528 104.148 90.9655ZM81.082 33.235C82.0478 41.7216 84.1686 50.0543 87.1011 58.0686C60.8667 64.8269 34.6323 71.5853 8.39792 78.3436C4.43013 67.5091 1.64187 56.2094 0.530741 44.7132C27.3812 40.8871 54.2316 37.0611 81.082 33.235ZM88.3284 61.2927C91.9752 70.4908 96.641 79.2637 101.955 87.6025C77.5857 97.783 53.2166 107.963 28.8475 118.144C21.4795 106.966 15.0335 95.1462 10.0644 82.7035C36.1524 75.5665 62.2404 68.4296 88.3284 61.2927ZM81.9834 7.51833C80.5182 14.9869 80.1737 22.6587 80.7894 30.2395C53.9316 33.7109 27.0737 37.1823 0.21583 40.6537C-0.424719 30.3648 0.348354 19.9725 2.69784 9.92868C29.1264 9.12523 55.5549 8.32178 81.9834 7.51833ZM183.702 -49.6395C177.928 -47.177 172.322 -44.3034 167.02 -40.939C155.771 -44.1998 144.522 -47.4606 133.273 -50.7214C140.069 -54.7938 147.223 -58.2542 154.576 -61.1983C164.285 -57.3453 173.993 -53.4924 183.702 -49.6395ZM125.361 -50.7228C118.855 -46.6564 112.693 -42.0166 107.122 -36.7356C84.716 -40.8522 62.3099 -44.9687 39.9038 -49.0852C47.9137 -55.9942 56.6744 -62.0069 65.8664 -67.2299C85.6979 -61.7275 105.529 -56.2251 125.361 -50.7228ZM149.969 -63.0264C142.359 -60.0073 134.951 -56.4588 127.909 -52.2762C108.424 -57.9242 88.9389 -63.5722 69.4539 -69.2202C79.3187 -74.5481 89.635 -79.0166 100.192 -82.7794C116.785 -76.1951 133.377 -69.6107 149.969 -63.0264ZM205.11 -56.8545C198.605 -55.1656 192.193 -53.1014 185.962 -50.58C176.456 -54.4927 166.951 -58.4054 157.445 -62.3181C165.322 -65.3092 173.408 -67.7356 181.6 -69.6969C189.437 -65.4161 197.273 -61.1353 205.11 -56.8545ZM177.904 -71.7148C169.438 -69.7146 161.081 -67.234 152.938 -64.1724C136.72 -70.8479 120.503 -77.5234 104.285 -84.1988C115.438 -87.951 126.838 -90.9531 138.364 -93.3137C151.544 -86.1141 164.724 -78.9144 177.904 -71.7148ZM253.777 -63.2762C246.301 -63.0935 238.831 -62.5909 231.404 -61.7126C225.725 -66.1995 220.046 -70.6863 214.368 -75.1732C223.522 -76.1036 232.72 -76.591 241.921 -76.683C245.873 -72.2141 249.825 -67.7451 253.777 -63.2762ZM228.67 -61.3737C221.599 -60.4474 214.571 -59.1774 207.642 -57.4894C200.019 -61.8038 192.396 -66.1182 184.773 -70.4326C193.421 -72.3651 202.177 -73.799 210.98 -74.8074C216.876 -70.3295 222.773 -65.8516 228.67 -61.3737ZM208.218 -76.9044C199.138 -75.8889 190.105 -74.4343 181.182 -72.4645C168.386 -79.706 155.59 -86.9474 142.794 -94.1889C154.751 -96.4678 166.832 -98.0772 178.958 -99.1238C188.711 -91.7173 198.465 -84.3109 208.218 -76.9044Z" fill="#007481"/>
<path d="M518.089 50.6289C477.88 11.2895 429.771 -20.1922 377.009 -39.8973C349.676 -50.1063 321.134 -57.2345 292.103 -60.3494C292.909 -57.6456 293.716 -54.9418 294.522 -52.238C336.342 -48.0338 376.946 -34.4421 413.882 -14.5881C443.643 1.43654 471.047 21.7372 495.393 45.1631C502.958 46.985 510.524 48.807 518.089 50.6289ZM439.204 343.716C455.332 347.293 471.54 350.51 487.81 353.371C476.131 330.167 464.453 306.964 452.775 283.76C439.353 280.524 425.997 277.016 412.718 273.236C421.547 296.73 430.375 320.223 439.204 343.716ZM346.452 205.081C360.209 210.524 374.117 215.584 388.144 220.289C393.375 235.046 398.607 249.803 403.838 264.56C387.11 259.576 370.516 254.144 354.09 248.239C351.544 233.853 348.998 219.467 346.452 205.081ZM302.225 181.743C314.872 187.781 327.706 193.425 340.685 198.711C339.278 189.549 337.871 180.386 336.464 171.223C325.294 166.42 314.25 161.321 303.372 155.888C302.989 164.506 302.607 173.124 302.225 181.743ZM355.276 254.939C372.108 260.899 389.113 266.365 406.252 271.372C414.589 294.89 422.927 318.407 431.265 341.924C409.928 337.03 388.737 331.502 367.736 325.325C363.583 301.863 359.43 278.401 355.276 254.939ZM302.044 185.837C314.969 191.966 328.087 197.685 341.35 203.041C343.55 217.362 345.75 231.683 347.95 246.004C331.855 240.079 315.93 233.692 300.229 226.791C300.834 213.14 301.439 199.489 302.044 185.837ZM248.209 208.388C263.191 216.33 278.469 223.71 293.968 230.589C292.361 253.292 290.754 275.994 289.147 298.697C268.779 290.825 248.682 282.246 228.949 272.893C235.369 251.391 241.789 229.889 248.209 208.388ZM262.382 160.92C273.899 167.516 285.655 173.691 297.585 179.504C298.189 170.964 298.794 162.424 299.399 153.884C289.231 148.706 279.213 143.232 269.402 137.404C267.062 145.243 264.722 153.082 262.382 160.92ZM196.954 115.554C205.435 122.839 214.297 129.672 223.41 136.145C227.761 129.353 232.112 122.561 236.463 115.769C228.805 110.173 221.363 104.277 214.241 98.0118C208.479 103.859 202.717 109.707 196.954 115.554ZM225.042 142.003C235.413 149.16 246.088 155.872 256.982 162.204C252.88 174.649 248.778 187.094 244.677 199.539C231.075 192.091 217.74 184.149 204.779 175.633C211.533 164.423 218.288 153.213 225.042 142.003ZM194.179 118.37C202.879 125.816 211.972 132.796 221.322 139.405C214.25 150.444 207.178 161.484 200.106 172.524C188.307 164.587 176.839 156.147 165.853 147.115C175.295 137.533 184.737 127.952 194.179 118.37ZM201.551 180.99C214.928 189.712 228.692 197.833 242.728 205.447C235.703 226.761 228.678 248.074 221.653 269.388C202.79 260.212 184.275 250.309 166.261 239.559C178.024 220.036 189.787 200.513 201.551 180.99ZM161.314 151.721C172.672 161 184.529 169.659 196.723 177.805C184.382 197.069 172.042 216.333 159.701 235.597C143.018 225.377 126.782 214.413 111.214 202.56C127.914 185.614 144.614 168.667 161.314 151.721ZM154.631 68.8271C159.354 76.0857 164.674 82.9456 170.374 89.4606C177.584 84.8788 184.794 80.2971 192.005 75.7154C187.241 70.177 182.8 64.3538 178.849 58.2069C170.776 61.7469 162.704 65.287 154.631 68.8271ZM172.701 92.0747C179.362 99.4452 186.503 106.374 193.952 112.943C199.877 107.219 205.802 101.495 211.727 95.7709C205.495 90.145 199.522 84.2239 193.948 77.942C186.865 82.6529 179.783 87.3638 172.701 92.0747ZM186.59 -48.4935C180.967 -46.0805 175.51 -43.2651 170.35 -39.9722C177.3 -37.9576 184.25 -35.943 191.201 -33.9285C195.489 -36.7663 200.038 -39.1978 204.731 -41.2939C198.684 -43.6938 192.637 -46.0936 186.59 -48.4935ZM138.653 47.5255C141.463 54.6364 145.019 61.4389 149.061 67.9237C135.54 73.5717 122.02 79.2197 108.5 84.8677C103.363 76.7865 98.8551 68.2855 95.3257 59.3778C109.768 55.427 124.211 51.4762 138.653 47.5255ZM137.296 25.2241C138.104 31.6178 139.733 37.8916 141.942 43.94C150.698 41.6843 159.454 39.4285 168.209 37.1727C166.346 32.0674 164.956 26.777 164.247 21.3846C155.263 22.6644 146.28 23.9443 137.296 25.2241ZM169.28 94.3493C176.121 101.891 183.448 108.984 191.098 115.7C181.382 125.087 171.665 134.474 161.948 143.862C152.235 135.65 142.921 126.954 134.234 117.66C145.916 109.89 157.598 102.119 169.28 94.3493ZM132.951 25.8444C133.772 32.3996 135.44 38.8331 137.707 45.033C123.183 48.7739 108.66 52.5148 94.1371 56.2558C91.2973 48.4941 89.2372 40.4262 88.2904 32.2085C103.177 30.0871 118.064 27.9657 132.951 25.8444ZM137.607 5.8274C136.65 11.4821 136.505 17.2628 137.047 22.9685C146.039 21.8059 155.032 20.6433 164.024 19.4807C163.534 14.6702 163.612 9.79461 164.358 5.01425C155.441 5.2853 146.524 5.55635 137.607 5.8274ZM139.2 -11.759C136.667 -6.83073 134.81 -1.55669 133.691 3.87004C119.011 4.14333 104.331 4.41662 89.6513 4.68991C91.2009 -2.10987 93.7148 -8.68608 97.0705 -14.7988C111.114 -13.7856 125.157 -12.7723 139.2 -11.759ZM133.299 5.9587C132.306 11.7538 132.148 17.68 132.698 23.5299C117.8 25.4557 102.901 27.3814 88.0019 29.3071C87.3911 21.9679 87.7099 14.5393 89.1018 7.30274C103.834 6.85472 118.566 6.40671 133.299 5.9587ZM143.319 -11.4627C140.863 -6.65037 139.061 -1.505 137.987 3.79007C146.877 3.6243 155.766 3.45853 164.656 3.29277C165.504 -1.17423 166.947 -5.5287 168.948 -9.61238C160.405 -10.2291 151.862 -10.8459 143.319 -11.4627ZM153.836 -26.3814C150.14 -22.4051 146.886 -18.0062 144.266 -13.2478C152.75 -12.5407 161.233 -11.8335 169.716 -11.1264C171.848 -15.157 174.507 -18.9017 177.552 -22.2933C169.646 -23.656 161.741 -25.0187 153.836 -26.3814ZM207.456 -55.5726C201.115 -53.9136 194.865 -51.8894 188.794 -49.4147C194.72 -46.9752 200.647 -44.5357 206.573 -42.0963C211.664 -44.2529 216.912 -46.0319 222.243 -47.4949C217.314 -50.1875 212.385 -52.8801 207.456 -55.5726ZM230.445 -60.0255C223.545 -59.1106 216.688 -57.8558 209.926 -56.1994C214.726 -53.4829 219.526 -50.7664 224.325 -48.05C230.04 -49.5265 235.843 -50.6512 241.684 -51.4907C237.938 -54.3356 234.191 -57.1806 230.445 -60.0255ZM254.976 -61.9226C247.67 -61.7339 240.371 -61.2294 233.115 -60.3613C236.727 -57.5074 240.34 -54.6535 243.952 -51.7996C250.135 -52.6045 256.357 -53.0975 262.587 -53.3139C260.05 -56.1835 257.513 -59.0531 254.976 -61.9226ZM280.532 -61.3603C272.961 -61.8709 265.37 -62.0937 257.782 -61.9786C260.185 -59.1142 262.588 -56.2499 264.991 -53.3856C271.505 -53.5461 278.026 -53.4098 284.531 -53.0272C283.198 -55.8049 281.865 -58.5826 280.532 -61.3603Z" fill="#004876"/>
</g>
</svg>
