<svg width="24" height="24" viewBox="0 0 24 24" fill="none" xmlns="http://www.w3.org/2000/svg">
<path d="M11.9694 0C5.35886 0 0 5.35886 0 11.9694C0 18.5799 5.35886 23.9388 11.9694 23.9388C18.5799 23.9388 23.9388 18.5799 23.9388 11.9694C23.9388 5.35886 18.5799 0 11.9694 0ZM19.2073 8.77739C19.213 8.91869 19.2159 9.06024 19.2159 9.20253C19.2159 14.3155 15.3252 19.6041 8.81437 19.6041C6.82408 19.6041 4.8862 19.0362 3.21037 17.9613C3.17535 17.939 3.1609 17.8957 3.17486 17.8567C3.18882 17.818 3.22825 17.794 3.26865 17.7987C3.5498 17.8322 3.83731 17.8489 4.12261 17.8489C5.6711 17.8489 7.13706 17.3701 8.37698 16.4618C6.89069 16.3364 5.61331 15.3306 5.15388 13.8958C5.14433 13.8659 5.15118 13.8333 5.17176 13.8098C5.19257 13.7863 5.22441 13.776 5.25478 13.7816C5.66669 13.8598 6.08547 13.8649 6.48906 13.7993C4.95624 13.3229 3.87894 11.8871 3.87894 10.2524L3.87943 10.2049C3.88016 10.1738 3.89706 10.1454 3.924 10.13C3.95069 10.1143 3.984 10.114 4.01094 10.1292C4.41061 10.3511 4.8529 10.4936 5.30669 10.5482C4.4258 9.84612 3.90857 8.7818 3.90857 7.64327C3.90857 6.98645 4.08245 6.3409 4.41159 5.77641C4.42629 5.75118 4.45225 5.73502 4.48114 5.73282C4.51029 5.72988 4.53845 5.74261 4.55682 5.76514C6.35976 7.97657 9.01175 9.3382 11.8477 9.51331C11.8004 9.27527 11.7764 9.02988 11.7764 8.78229C11.7764 6.73469 13.4422 5.06914 15.4896 5.06914C16.4961 5.06914 17.4688 5.48278 18.166 6.20571C18.9519 6.04555 19.7006 5.75657 20.3922 5.34661C20.4238 5.32776 20.4634 5.33069 20.4926 5.35347C20.521 5.37649 20.5327 5.41469 20.5215 5.44996C20.2871 6.18294 19.8301 6.82237 19.2162 7.284C19.7944 7.18335 20.3554 7.01339 20.8891 6.77657C20.9248 6.76016 20.9672 6.77045 20.9929 6.80057C21.0184 6.83094 21.0206 6.87429 20.9985 6.9071C20.5124 7.63469 19.91 8.26384 19.2073 8.77739Z" fill="#00ACEE"/>
</svg>
