<svg width="24" height="16" fill="none" xmlns="http://www.w3.org/2000/svg"><path d="M1 7a1 1 0 000 2V7zm22.707 1.707a1 1 0 000-1.414L17.343.929a1 1 0 10-1.414 1.414L21.586 8l-5.657 5.657a1 1 0 001.414 1.414l6.364-6.364zM1.917 9a1 1 0 000-2v2zm3.666-2a1 1 0 000 2V7zm1.834 2a1 1 0 100-2v2zm3.666-2a1 1 0 100 2V7zm1.834 2a1 1 0 100-2v2zm3.666-2a1 1 0 100 2V7zm1.834 2a1 1 0 100-2v2zm3.666-2a1 1 0 100 2V7zM1 9h.917V7H1v2zm4.583 0h1.834V7H5.583v2zm5.5 0h1.834V7h-1.834v2zm5.5 0h1.834V7h-1.834v2zm5.5 0H23V7h-.917v2z" fill="#CDD3DF"/></svg>