<svg width="157" height="98" fill="none" xmlns="http://www.w3.org/2000/svg"><g clip-path="url(#clip0)" fill="#CDD3DF"><path d="M156.53 30.28l-4.085-.02v.02h4.085zm0-.02v-5.875h-4.085v5.874h4.085zm0-5.875l-4.085-.02v.02h4.085zm0-5.854l-4.085-.02v.02h4.085zm0-.02v-5.875h-4.085v5.875h4.085zm0-5.875l-4.085-.02v.02h4.085zm0-5.856l-4.085-.02v.02h4.085zm0-.02V.885h-4.085V6.76h4.085zm0-5.875l-4.085-.02v.02h4.085zm0 40.374v-5.121h-4.085v1.024h-1.021v4.097h5.106zm-89.888-4.097h-6.615v4.097l.022-4.097v4.097h6.573l.02-4.097zm-13.145 0h-6.618v4.097l.022-4.097v4.097h6.573l.023-4.097zm-13.146 0h-6.618v4.097l.022-4.097v4.097h6.573l.023-4.097zm-13.146 0h-6.616v4.097l.022-4.097v4.097h6.573l.02-4.097zm91.437 0h-6.615v4.097l.022-4.097v4.097h6.573l.02-4.097zm-13.145 0h-6.618v4.097l.022-4.097v4.097h6.573l.023-4.097zm-13.146 0h-6.618v4.097l.022-4.097v4.097h6.573l.023-4.097zm-13.146 0h-6.616v4.097l.022-4.097v4.097h6.573l.02-4.097zm65.437 0h-6.615v4.097l.022-4.097v4.097h6.573l.02-4.097zm-13.145 0h-6.618v4.097l.022-4.097v4.097h6.573l.023-4.097zM14.039 41.258v-4.096H8.931v5.12h4.085v-1.024h1.022zm-1.022 41.44l-4.085-.024v.024h4.085zm0-.024V75.99H8.932v6.684h4.085zm0-6.682l-4.085-.024v.024h4.085zm0-6.663l-4.085-.022v.022h4.085zm0-.022V62.62H8.932v6.686h4.085zm0-13.633l-4.085-.022h4.085v-6.686H8.932v6.708h4.085z"/><path d="M21.206 80.996l-3.542-2.04-6.314 11.018-7.148-10.547-3.379 2.304L11.64 97.686l9.566-16.69z"/></g><defs><clipPath id="clip0"><path fill="#fff" transform="matrix(0 1 1 0 0 0)" d="M0 0h98v157H0z"/></clipPath></defs></svg>