<svg width="798" height="235" fill="none" xmlns="http://www.w3.org/2000/svg"><path d="M99.5 235c40.593 0 73.5-32.907 73.5-73.5S140.093 88 99.5 88 26 120.907 26 161.5 58.907 235 99.5 235zM664.584 21.185a2.589 2.589 0 002.585-2.593A2.588 2.588 0 00664.584 16 2.588 2.588 0 00662 18.592a2.588 2.588 0 002.584 2.593zm21.967 0a2.588 2.588 0 002.584-2.593A2.588 2.588 0 00686.551 16a2.588 2.588 0 00-2.584 2.592 2.588 2.588 0 002.584 2.593zm21.644 0a2.588 2.588 0 002.584-2.593A2.588 2.588 0 00708.195 16a2.588 2.588 0 00-2.585 2.592 2.589 2.589 0 002.585 2.593zm21.967 0a2.588 2.588 0 002.584-2.593A2.588 2.588 0 00730.162 16a2.588 2.588 0 00-2.585 2.592 2.589 2.589 0 002.585 2.593zm21.643 0a2.59 2.59 0 002.585-2.593A2.59 2.59 0 00751.805 16a2.588 2.588 0 00-2.584 2.592 2.588 2.588 0 002.584 2.593zm21.967 0a2.588 2.588 0 002.584-2.593A2.588 2.588 0 00773.772 16a2.588 2.588 0 00-2.584 2.592 2.588 2.588 0 002.584 2.593zm21.644 0A2.588 2.588 0 00798 18.592 2.588 2.588 0 00795.416 16a2.588 2.588 0 00-2.585 2.592 2.589 2.589 0 002.585 2.593zM664.584 43.22a2.588 2.588 0 002.585-2.593 2.588 2.588 0 00-2.585-2.592A2.588 2.588 0 00662 40.627a2.588 2.588 0 002.584 2.593zm21.967 0a2.588 2.588 0 002.584-2.593 2.588 2.588 0 00-2.584-2.592 2.588 2.588 0 00-2.584 2.592 2.588 2.588 0 002.584 2.593zm21.644 0a2.588 2.588 0 002.584-2.593 2.588 2.588 0 00-2.584-2.592 2.588 2.588 0 00-2.585 2.592 2.588 2.588 0 002.585 2.593zm21.967 0a2.588 2.588 0 002.584-2.593 2.588 2.588 0 00-2.584-2.592 2.588 2.588 0 00-2.585 2.592 2.588 2.588 0 002.585 2.593zm21.643 0a2.59 2.59 0 002.585-2.593 2.59 2.59 0 00-2.585-2.592 2.588 2.588 0 00-2.584 2.592 2.588 2.588 0 002.584 2.593zm21.967 0a2.588 2.588 0 002.584-2.593 2.588 2.588 0 00-2.584-2.592 2.588 2.588 0 00-2.584 2.592 2.588 2.588 0 002.584 2.593zm21.644 0A2.588 2.588 0 00798 40.627a2.588 2.588 0 00-2.584-2.592 2.588 2.588 0 00-2.585 2.592 2.588 2.588 0 002.585 2.593zM664.584 65.254a2.588 2.588 0 002.585-2.592 2.588 2.588 0 00-2.585-2.592A2.588 2.588 0 00662 62.662a2.588 2.588 0 002.584 2.592zm21.967 0a2.588 2.588 0 002.584-2.592 2.588 2.588 0 00-2.584-2.592 2.588 2.588 0 00-2.584 2.592 2.588 2.588 0 002.584 2.592zm21.644 0a2.588 2.588 0 002.584-2.592 2.588 2.588 0 00-2.584-2.592 2.588 2.588 0 00-2.585 2.592 2.588 2.588 0 002.585 2.592zm21.967 0a2.588 2.588 0 002.584-2.592 2.588 2.588 0 00-2.584-2.592 2.588 2.588 0 00-2.585 2.592 2.588 2.588 0 002.585 2.592zm21.643 0a2.59 2.59 0 002.585-2.592 2.59 2.59 0 00-2.585-2.592 2.588 2.588 0 00-2.584 2.592 2.588 2.588 0 002.584 2.592zm21.967 0a2.588 2.588 0 002.584-2.592 2.588 2.588 0 00-2.584-2.592 2.588 2.588 0 00-2.584 2.592 2.588 2.588 0 002.584 2.592zm21.644 0A2.588 2.588 0 00798 62.662a2.588 2.588 0 00-2.584-2.592 2.588 2.588 0 00-2.585 2.592 2.588 2.588 0 002.585 2.592zM664.584 86.965a2.588 2.588 0 002.585-2.592 2.589 2.589 0 00-2.585-2.593A2.588 2.588 0 00662 84.374a2.588 2.588 0 002.584 2.592zm21.967 0a2.588 2.588 0 002.584-2.592 2.588 2.588 0 00-2.584-2.593 2.588 2.588 0 00-2.584 2.593 2.588 2.588 0 002.584 2.592zm21.644 0a2.588 2.588 0 002.584-2.592 2.588 2.588 0 00-2.584-2.593 2.589 2.589 0 00-2.585 2.593 2.588 2.588 0 002.585 2.592zm21.967 0a2.588 2.588 0 002.584-2.592 2.588 2.588 0 00-2.584-2.593 2.589 2.589 0 00-2.585 2.593 2.588 2.588 0 002.585 2.592zm21.643 0a2.59 2.59 0 002.585-2.592 2.59 2.59 0 00-2.585-2.593 2.588 2.588 0 00-2.584 2.593 2.588 2.588 0 002.584 2.592zm21.967 0a2.588 2.588 0 002.584-2.592 2.588 2.588 0 00-2.584-2.593 2.588 2.588 0 00-2.584 2.593 2.588 2.588 0 002.584 2.592zm21.644 0A2.588 2.588 0 00798 84.373a2.588 2.588 0 00-2.584-2.593 2.589 2.589 0 00-2.585 2.593 2.588 2.588 0 002.585 2.592zM664.584 109a2.589 2.589 0 002.585-2.592 2.589 2.589 0 00-2.585-2.593 2.589 2.589 0 00-2.584 2.593 2.588 2.588 0 002.584 2.592zm21.967 0a2.588 2.588 0 002.584-2.592 2.589 2.589 0 00-2.584-2.593 2.589 2.589 0 00-2.584 2.593 2.588 2.588 0 002.584 2.592zm21.644 0a2.588 2.588 0 002.584-2.592 2.589 2.589 0 00-2.584-2.593 2.589 2.589 0 00-2.585 2.593 2.589 2.589 0 002.585 2.592zm21.967 0a2.588 2.588 0 002.584-2.592 2.589 2.589 0 00-2.584-2.593 2.589 2.589 0 00-2.585 2.593 2.589 2.589 0 002.585 2.592zm21.643 0a2.59 2.59 0 002.585-2.592 2.59 2.59 0 00-2.585-2.593 2.589 2.589 0 00-2.584 2.593 2.588 2.588 0 002.584 2.592zm21.967 0a2.588 2.588 0 002.584-2.592 2.589 2.589 0 00-2.584-2.593 2.589 2.589 0 00-2.584 2.593 2.588 2.588 0 002.584 2.592zm21.644 0a2.588 2.588 0 002.584-2.592 2.589 2.589 0 00-2.584-2.593 2.589 2.589 0 00-2.585 2.593 2.589 2.589 0 002.585 2.592z" fill="#004876" opacity=".3"/><path d="M776.741 26.501c7.323 0 13.259-5.932 13.259-13.25S784.064 0 776.741 0s-13.259 5.933-13.259 13.25c0 7.319 5.936 13.251 13.259 13.251z" fill="#004876"/><path d="M747.247 34.344c-3.382 2.298-4.329 6.896-2.029 10.276s6.9 4.327 10.282 2.028c3.382-2.299 4.329-6.896 2.029-10.276-2.164-3.38-6.9-4.327-10.282-2.028zm6.9 10.14c-2.165 1.488-5.141.947-6.629-1.352-1.489-2.163-.947-5.137 1.353-6.625 2.164-1.487 5.141-.946 6.629 1.352 1.353 2.164.812 5.138-1.353 6.626z" fill="#fff"/><path d="M17.666 191.198c-7.073-1.895-14.342 2.299-16.236 9.367-1.895 7.069 2.304 14.336 9.377 16.231 7.073 1.895 14.342-2.299 16.237-9.367 1.894-7.069-2.305-14.336-9.378-16.231z" fill="#004876"/><path d="M48.185 191.256c3.862-1.345 5.967-5.54 4.62-9.4-1.347-3.861-5.545-5.966-9.407-4.621-3.862 1.345-5.967 5.541-4.62 9.401 1.216 3.825 5.545 5.965 9.407 4.62zm-4.04-11.581c2.476-.876 5.21.417 6.053 3.022.878 2.475-.415 5.208-3.021 6.049-2.476.877-5.211-.416-6.054-3.021-.747-2.44.546-5.173 3.022-6.05z" fill="#fff"/></svg>