<svg width="15" height="16" fill="none" xmlns="http://www.w3.org/2000/svg"><g clip-path="url(#clip0)"><path fill-rule="evenodd" clip-rule="evenodd" d="M9.57 1.62V.822a.798.798 0 011.595 0v.798a3.19 3.19 0 013.19 3.19v7.975a3.19 3.19 0 01-3.19 3.19H3.19A3.19 3.19 0 010 12.785V4.81a3.19 3.19 0 013.19-3.19V.822a.798.798 0 011.595 0v.798H9.57zM12.76 8H1.595v4.785c0 .88.714 1.595 1.595 1.595h7.975c.88 0 1.595-.715 1.595-1.595V8zm-1.595-4.785v.797a.798.798 0 01-1.595 0v-.797H4.785v.797a.798.798 0 01-1.595 0v-.797c-.881 0-1.595.714-1.595 1.595v1.595H12.76V4.81c0-.881-.714-1.595-1.595-1.595z" fill="#2D363F"/></g><defs><clipPath id="clip0"><path fill="#fff" d="M0 0h14.355v16H0z"/></clipPath></defs></svg>