<svg width="39" height="32" fill="none" xmlns="http://www.w3.org/2000/svg"><g clip-path="url(#clip0)" fill="#004876"><path d="M38.1 8.227a1.114 1.114 0 00-.778-1.03c-.229-.072.024-.052-7.922-.052C26.506 2.8 21.59.001 16.074.001 7.211.001 0 7.179 0 16.001s7.21 16 16.074 16c5.52 0 10.434-2.802 13.326-7.144h7.586c.617 0 1.116-.5 1.116-1.117 0-13.59.001-15.425-.002-15.513zm-4.315 1.15l-6.556 5.205-6.705-5.204h13.26zm-17.71 20.391c-7.633 0-13.842-6.176-13.842-13.767 0-7.591 6.209-13.767 13.841-13.767 4.138 0 7.949 1.804 10.545 4.911-10.008 0-9.344-.002-9.43.004-.548.038-.988.47-1.035 1.016-.007.083-.005-.395-.005 6.124h-5.433a1.116 1.116 0 000 2.233h5.433v7.218c0 .617.5 1.117 1.116 1.117h9.354c-2.596 3.106-6.407 4.911-10.545 4.911zm2.306-7.144V10.541l8.172 6.342c.405.315.975.313 1.378-.008l7.939-6.302v12.051H18.38z"/><path d="M9.525 11.758h1.787a1.116 1.116 0 000-2.232H9.524a1.116 1.116 0 100 2.232zm1.192 7.293H7.145a1.116 1.116 0 000 2.233h3.572a1.116 1.116 0 000-2.233z"/></g><defs><clipPath id="clip0"><path fill="#fff" d="M0 0h38.102v32H0z"/></clipPath></defs></svg>