<svg xmlns="http://www.w3.org/2000/svg" width="277.492" height="216.835" viewBox="0 0 260.149 203.283"><path d="M227.128 64.198c-20.516-18.926-45.343-33.34-72.274-40.863-10.288-2.869-20.872-4.741-31.544-5.309l-3.979-7.273c23.583 1.671 46.722 8.12 68.128 18.075 20.99 9.77 40.297 23.068 57.091 38.988l-17.422-3.618zM46.924 30.008c-2.297 2.3-4.34 4.863-6.009 7.655l-33.16-2.762c2.477-3.732 5.46-7.117 8.767-10.134l30.402 5.241zm26.782-2.194c-2.177 1.451-4.226 3.1-6.067 4.962l-17.088-3.14c2.396-2.288 5.045-4.305 7.847-6.07l15.308 4.248zM46.493 86.142c2.847 4.265 6.062 8.277 9.509 12.071l-28.535 18.132c-4.799-5.014-9.275-10.349-13.23-16.057l32.256-14.146zM36.196 60.371c.431 3.788 1.378 7.508 2.687 11.086l-35.134 9.05C1.978 75.672.733 70.628.237 65.496l35.959-5.125zm3.235 12.525c1.628 4.106 3.71 8.022 6.083 11.745L12.878 98.275c-3.29-4.99-6.167-10.267-8.385-15.821l34.938-9.558zM36.598 48.89c-.654 3.334-.808 6.76-.533 10.143L.096 63.683c-.286-4.594.06-9.233 1.108-13.717l35.394-1.076zm45.409-25.516c-2.578 1.1-5.08 2.382-7.447 3.884-5.022-1.455-10.044-2.91-15.065-4.367 3.034-1.818 6.227-3.362 9.51-4.677l13.002 5.16zm-26.044-.483c-2.905 1.815-5.655 3.886-8.142 6.244l-30.007-5.513c3.575-3.084 7.486-5.769 11.59-8.1l26.559 7.369zm10.985-5.493c-3.397 1.348-6.705 2.932-9.848 4.8l-26.095-7.565c4.404-2.378 9.01-4.373 13.722-6.053l22.221 8.818zm24.615 2.755a69.028 69.028 0 00-8.548 2.802l-12.73-5.24c3.517-1.336 7.126-2.419 10.783-3.294l10.495 5.732zM79.418 13.52c-3.779.893-7.51 2-11.145 3.367l-21.719-8.94c4.979-1.675 10.068-3.015 15.213-4.07l17.651 9.643zm33.871 3.767a107.26 107.26 0 00-9.988.698l-7.605-6.01c4.087-.414 8.193-.632 12.3-.673l5.293 5.985zm-11.208.85c-3.156.413-6.294.98-9.387 1.733l-10.21-5.778c3.861-.863 7.77-1.503 11.7-1.953l7.897 5.997zm-9.13-6.934a115.574 115.574 0 00-12.07 1.982L63.746 3.487A159.479 159.479 0 0179.89 1.284l13.062 9.919z" fill="#007481"/><path d="M260.149 66.876c-21.787-20.198-47.117-36.576-74.534-48.032C160.74 8.448 134.18 1.916 107.245.248A211.912 211.912 0 00102.163 0l8.239 10.382c21.333.318 42.499 4.83 62.444 12.303 24.555 9.217 47.275 23.172 66.82 40.641l20.484 3.55z" fill="#00a1af"/><path d="M231.281 68.135c-17.95-17.561-39.426-31.615-62.98-40.412-12.202-4.557-24.943-7.74-37.903-9.13l1.08 3.621c18.669 1.877 36.795 7.945 53.284 16.808 13.285 7.153 25.519 16.216 36.387 26.673l10.132 2.44zm-35.215 130.838a501.265 501.265 0 0021.698 4.31l-15.64-31.075a455.05 455.05 0 01-17.882-4.698l11.824 31.463zm-41.406-61.888a373.315 373.315 0 0018.612 6.789l7.006 19.763a420.67 420.67 0 01-22.208-7.286l-3.41-19.266zm-19.743-10.419a319.804 319.804 0 0017.169 7.575l-1.884-12.271a285.3 285.3 0 01-14.773-6.846l-.512 11.542zm23.683 32.676c7.513 2.66 15.105 5.1 22.756 7.336l11.166 31.495a483.784 483.784 0 01-28.36-7.41l-5.562-31.421zm-23.764-30.848a325.112 325.112 0 0017.547 7.68l2.946 19.179a374.286 374.286 0 01-21.303-8.577l.81-18.282zm-24.032 10.067a325.588 325.588 0 0020.427 9.91l-2.152 30.405a396.111 396.111 0 01-26.873-11.52l8.598-28.795zm6.326-21.19c5.141 2.944 10.39 5.7 15.715 8.296l.81-11.437a235.254 235.254 0 01-13.39-7.357l-3.135 10.498zM87.923 97.119c3.785 3.252 7.741 6.302 11.81 9.192l5.827-9.096c-3.419-2.499-6.741-5.13-9.92-7.927l-7.717 7.83zm12.539 11.807a217.647 217.647 0 0014.258 9.018l-5.493 16.667c-6.073-3.325-12.025-6.87-17.811-10.672 3.015-5.005 6.03-10.01 9.046-15.013zm-13.778-10.55c3.884 3.324 7.943 6.44 12.117 9.39L89.33 122.55c-5.268-3.544-10.387-7.311-15.291-11.343l12.645-12.832zm3.29 27.954c5.972 3.894 12.117 7.519 18.383 10.918l-9.408 28.544c-8.421-4.096-16.686-8.517-24.728-13.316l15.754-26.146zm-17.962-13.066c5.07 4.142 10.364 8.008 15.807 11.644l-16.527 25.8c-7.447-4.563-14.695-9.457-21.645-14.749l22.365-22.695zM69.03 76.26c2.109 3.24 4.483 6.303 7.028 9.211l9.656-6.136c-2.126-2.472-4.11-5.072-5.873-7.816L69.029 76.26zm8.067 10.378c2.973 3.29 6.16 6.384 9.487 9.316l7.935-7.666c-2.783-2.511-5.45-5.155-7.937-7.959l-9.485 6.31zm6.2-62.751c-2.51 1.077-4.946 2.334-7.25 3.804l9.308 2.698a41.851 41.851 0 016.04-3.288l-8.098-3.214zm-21.4 42.864c1.255 3.174 2.842 6.211 4.646 9.106L48.435 83.42c-2.292-3.608-4.305-7.403-5.88-11.38l19.341-5.29zm-.605-9.956c.36 2.855 1.087 5.655 2.074 8.355l11.726-3.02c-.832-2.28-1.453-4.641-1.77-7.049l-12.03 1.714zM75.57 87.654c3.053 3.366 6.324 6.533 9.74 9.53l-13.013 12.573c-4.337-3.666-8.494-7.548-12.372-11.697 5.215-3.47 10.43-6.938 15.645-10.406zM59.35 57.07c.366 2.927 1.11 5.799 2.123 8.566l-19.45 5.01c-1.268-3.465-2.188-7.066-2.61-10.735l19.937-2.84zm2.078-8.936c-.427 2.525-.492 5.105-.25 7.652l12.043-1.557a25.291 25.291 0 01.15-6.458l-11.943.363zm.711-7.85a27.382 27.382 0 00-2.459 6.977l-19.66.366a33.649 33.649 0 013.312-8.7l18.807 1.357zm-2.634 7.909c-.443 2.587-.514 5.233-.268 7.844l-19.953 2.579c-.273-3.276-.13-6.593.491-9.823l19.73-.6zm4.473-7.777a26.666 26.666 0 00-2.38 6.809l11.905-.222a22.775 22.775 0 011.916-5.761l-11.44-.826zm4.695-6.66a29.67 29.67 0 00-4.272 5.863l11.361.947a24.947 24.947 0 013.498-4.985l-10.587-1.825zM92.61 20.725a66.787 66.787 0 00-8.331 2.749l7.937 3.267a55.76 55.76 0 016.995-2.41l-6.601-3.606zm10.262-1.988a85.8 85.8 0 00-9.16 1.708l6.428 3.638a71.8 71.8 0 017.75-1.536l-5.018-3.81zm10.951-.847c-3.261.084-6.52.31-9.759.697l4.838 3.822a87.73 87.73 0 018.319-.676l-3.398-3.843zm11.409.251a123.18 123.18 0 00-10.156-.276l3.218 3.836c2.908-.072 5.819-.01 8.723.16l-1.785-3.72z" fill="#004876"/></svg>