<svg width="32" height="32" fill="none" xmlns="http://www.w3.org/2000/svg"><path fill-rule="evenodd" clip-rule="evenodd" d="M4 30V1a1 1 0 011-1h12a1 1 0 011 1v5h9a1 1 0 011 1v23h3a1.001 1.001 0 010 2H1a1 1 0 010-2h3zm12 0V2H6v28h1.997v-5a1 1 0 011-1h4a1 1 0 011 1v5H16zm-6.003-4v4h2v-4h-2zM18 8v22h8V8h-8zm2.997 20h2a1 1 0 000-2h-2a1 1 0 000 2zm0-4h2a1 1 0 000-2h-2a1 1 0 000 2zm-12-2h4a1 1 0 000-2h-4a1 1 0 000 2zm12-2h2a1 1 0 000-2h-2a1 1 0 000 2zm-12-2h4a1 1 0 000-2h-4a1 1 0 000 2zm12-2h2a1 1 0 000-2h-2a1 1 0 000 2zm-12-2h4a1 1 0 000-2h-4a1 1 0 000 2zm4-6a1 1 0 010 2H8.962l-.031-.002-.032-.003-.031-.003-.032-.005-.03-.005-.037-.008-.034-.009-.035-.01-.035-.011-.029-.011-.028-.012-.028-.012-.027-.013-.027-.014-.027-.014-.026-.016-.025-.016-.025-.017-.024-.018-.024-.018-.028-.023-.027-.024-.026-.025-.025-.025-.026-.029-.023-.027-.022-.029-.021-.029-.017-.024-.016-.026-.015-.026-.015-.026-.014-.027-.015-.033-.015-.034-.013-.035-.011-.032-.011-.035-.008-.03-.007-.03-.006-.031-.005-.031-.005-.031-.003-.031-.002-.032-.002-.032v-.035l.001-.032L8 8.928l.002-.031.002-.018c.06-.495.482-.879.993-.879h4z" fill="#004876"/><path d="M12.997 6h-4a1 1 0 010-2h4a1 1 0 010 2zm10 6h-2a1 1 0 010-2h2a1 1 0 010 2z" fill="#004876"/></svg>