<svg width="24" height="24" fill="none" xmlns="http://www.w3.org/2000/svg"><path d="M11.97 0C5.358 0 0 5.359 0 11.97c0 6.61 5.359 11.969 11.97 11.969 6.61 0 11.969-5.36 11.969-11.97S18.579 0 11.969 0zM7.484 20.073H4.12V9.247h3.365v10.826zM5.803 7.767a1.951 1.951 0 110-3.903 1.951 1.951 0 010 3.903zm14.284 12.306h-3.362v-5.265c0-1.255-.023-2.87-1.749-2.87-1.75 0-2.02 1.367-2.02 2.78v5.355h-3.36V9.247h3.227v1.48h.045c.45-.852 1.547-1.75 3.184-1.75 3.407 0 4.036 2.243 4.036 5.158v5.938z" fill="#0E76A8"/></svg>