<svg width="32" height="32" fill="none" xmlns="http://www.w3.org/2000/svg"><path d="M4.118 23.841l4.04 4.04c4.422 4.422 11.228 5.356 16.655 2.45.158-.075.877-.484 1.523-.946 1.4-1.002 1.552-3.05.326-4.276l-3.857-3.857a2.816 2.816 0 00-3.978 0l-1.325 1.326a2.811 2.811 0 01-3.978 0l-4.102-4.102a2.81 2.81 0 010-3.978l1.325-1.326a2.816 2.816 0 000-3.977L6.891 5.338c-1.226-1.226-3.275-1.074-4.276.325-3.94 5.506-3.418 13.257 1.503 18.178zm17.361-1.263l3.857 3.857c.404.404.37 1.095-.091 1.425-.223.16-.451.31-.682.454L19.49 23.24l.663-.663a.939.939 0 011.326 0zm-9.28 1.326a4.687 4.687 0 005.9.597l4.704 4.704c-4.467 1.82-9.808.862-13.319-2.65l-4.04-4.04c-3.511-3.51-4.469-8.852-2.65-13.318L7.5 13.9a4.686 4.686 0 00.597 5.9l4.102 4.103zM5.564 6.664l3.857 3.857a.937.937 0 010 1.325l-.663.663-5.073-5.072c.143-.231.294-.459.454-.682.33-.46 1.02-.496 1.425-.091zm13.311-4.789c6.203 0 11.25 5.047 11.25 11.25a.938.938 0 001.875 0C32 5.888 26.112 0 18.875 0a.938.938 0 000 1.875zm-.001 11.249v.001a.938.938 0 001.876 0 1.877 1.877 0 00-1.875-1.875.937.937 0 100 1.874zm.001-3.749a3.754 3.754 0 013.75 3.75.938.938 0 001.875 0A5.631 5.631 0 0018.875 7.5a.938.938 0 000 1.875z" fill="#004876"/><path d="M18.875 5.625c4.135 0 7.5 3.365 7.5 7.5a.938.938 0 001.875 0c0-5.17-4.206-9.375-9.375-9.375a.938.938 0 000 1.875z" fill="#004876"/></svg>