<svg width="59" height="48" fill="none" xmlns="http://www.w3.org/2000/svg"><path d="M1.335 19.32C4.463 8.196 12.18.12 19.682.12c.602 0 1.204.053 1.79.156.333.058.624.253.804.535.18.283.23.628.139.95L20.87 7.255c-.15.53-.664.889-1.198.864l-.123-.002c-2.782 0-7.866 4.146-10.458 13.36-.103.366-.2.74-.293 1.13a13.614 13.614 0 019.523-.893c7.09 1.973 11.245 9.313 9.263 16.362-1.607 5.712-6.892 9.703-12.851 9.703-1.214 0-2.426-.167-3.603-.495-4.676-1.299-8.192-5.16-9.9-10.867-1.542-5.148-1.503-11.38.104-17.096zM50.604.123c.602 0 1.204.05 1.79.154a1.18 1.18 0 01.942 1.486l-1.545 5.492c-.149.53-.653.889-1.198.864l-.121-.002c-2.782 0-7.867 4.146-10.459 13.36-.103.368-.2.742-.293 1.13a13.614 13.614 0 019.524-.893c7.09 1.973 11.244 9.313 9.26 16.362-1.606 5.712-6.89 9.703-12.85 9.703-1.214 0-2.426-.167-3.604-.495-4.675-1.3-8.19-5.16-9.9-10.867-1.54-5.149-1.502-11.38.105-17.097C35.385 8.197 43.101.123 50.605.123z" fill="#CDD3DF"/></svg>