<svg width="20" height="16" fill="none" xmlns="http://www.w3.org/2000/svg"><path d="M.452 6.44C1.512 2.732 4.13.04 6.672.04c.204 0 .408.018.607.052.112.02.211.084.272.178a.39.39 0 01.047.317l-.523 1.831a.407.407 0 01-.406.288h-.042c-.943 0-2.666 1.381-3.545 4.453-.035.122-.068.246-.1.376a4.686 4.686 0 013.229-.297c2.403.657 3.812 3.104 3.14 5.454-.545 1.904-2.336 3.234-4.357 3.234-.411 0-.822-.056-1.22-.165-1.586-.433-2.778-1.72-3.357-3.622-.522-1.716-.51-3.794.035-5.699zM17.154.041c.204 0 .408.017.607.052a.404.404 0 01.272.178.39.39 0 01.047.317l-.524 1.83a.405.405 0 01-.406.289l-.04-.001c-.944 0-2.667 1.382-3.546 4.453-.035.123-.068.248-.1.377a4.686 4.686 0 013.229-.298c2.403.658 3.811 3.104 3.14 5.454-.545 1.904-2.337 3.235-4.357 3.235a4.63 4.63 0 01-1.222-.165c-1.584-.433-2.776-1.72-3.355-3.623-.523-1.716-.51-3.793.035-5.699 1.061-3.707 3.677-6.399 6.22-6.399z" fill="#fff"/></svg>