<svg width="42" height="32" fill="none" xmlns="http://www.w3.org/2000/svg"><path d="M.889 12.892C3.143 5.422 8.703 0 14.109 0c.434 0 .868.035 1.29.104.24.04.45.17.58.36a.75.75 0 01.1.638L14.964 4.79c-.107.356-.477.596-.863.58l-.088-.001c-2.005 0-5.668 2.783-7.536 8.97-.074.246-.144.497-.211.759 2.096-.962 4.597-1.184 6.862-.6 5.11 1.325 8.103 6.254 6.675 10.987C18.646 29.32 14.838 32 10.544 32a10.35 10.35 0 01-2.597-.332c-3.37-.872-5.902-3.465-7.133-7.297-1.111-3.457-1.083-7.641.075-11.48zM35.95 0c.434 0 .868.034 1.29.103.24.039.45.17.578.36a.74.74 0 01.1.638l-1.112 3.688c-.108.356-.471.597-.863.58l-.088-.001c-2.005 0-5.668 2.784-7.536 8.97a19.41 19.41 0 00-.211.76c2.097-.962 4.597-1.184 6.862-.6 5.108 1.325 8.102 6.253 6.673 10.987C40.486 29.32 36.678 32 32.383 32c-.874 0-1.748-.112-2.596-.332-3.369-.872-5.902-3.465-7.133-7.297-1.11-3.457-1.083-7.642.075-11.48C24.984 5.42 30.544 0 35.95 0z" fill="#CDD3DF"/></svg>