<svg width="16" height="16" fill="none" xmlns="http://www.w3.org/2000/svg"><path d="M6.542.009h.08a6.758 6.758 0 013.586 1.02 6.78 6.78 0 012.505 2.767 6.8 6.8 0 01-.717 7.148l3.736 3.664a.81.81 0 01-.865 1.33.808.808 0 01-.264-.173L10.867 12.1a6.736 6.736 0 01-4.172 1.504h-.08a6.78 6.78 0 01-4.66-2.046 6.81 6.81 0 01-.05-9.454A6.78 6.78 0 016.541.009zm.137 11.979a5.165 5.165 0 002.864-.906 5.196 5.196 0 00.693-7.987 5.168 5.168 0 00-5.651-1.058 5.176 5.176 0 00-2.299 1.939 5.194 5.194 0 00.721 6.536c.98.96 2.301 1.49 3.672 1.476z" fill="#fff"/></svg>