<svg width="195" height="354" fill="none" xmlns="http://www.w3.org/2000/svg"><g style="mix-blend-mode:hard-light" opacity=".4"><path d="M508.786 41.81c-45.958-42.398-101.573-74.686-161.9-91.538-23.046-6.426-46.755-10.62-70.661-11.892l-8.913-16.292c52.828 3.743 104.661 18.19 152.613 40.49 47.016 21.883 90.267 51.673 127.888 87.336l-39.027-8.105zM105.114-34.78c-5.146 5.155-9.723 10.893-13.46 17.149l-74.282-6.187c5.549-8.361 12.23-15.944 19.639-22.701l68.103 11.74zm59.993-4.915c-4.876 3.252-9.467 6.946-13.59 11.116l-38.279-7.034c5.367-5.126 11.301-9.643 17.578-13.595l34.291 9.513zm-60.959 130.66c6.379 9.553 13.58 18.541 21.301 27.041l-63.921 40.617c-10.75-11.233-20.777-23.183-29.634-35.969l72.254-31.688zm-23.066-57.73c.966 8.487 3.087 16.82 6.02 24.834L8.397 78.344C4.43 67.509 1.642 56.209.53 44.714l80.551-11.479zm7.246 28.058c3.647 9.198 8.313 17.97 13.627 26.31l-73.108 30.541c-7.367-11.178-13.814-22.998-18.783-35.44l78.264-21.411zM81.983 7.518c-1.465 7.469-1.81 15.14-1.194 22.721L.216 40.654c-.64-10.29.132-20.682 2.482-30.725l79.285-2.41zm101.719-57.157c-5.774 2.462-11.38 5.336-16.682 8.7l-33.747-9.782c6.796-4.073 13.95-7.533 21.303-10.477l29.126 11.559zm-58.341-1.084c-6.506 4.067-12.668 8.706-18.239 13.987l-67.218-12.35c8.01-6.908 16.77-12.92 25.962-18.144l59.495 16.507zm24.608-12.303c-7.61 3.019-15.018 6.567-22.06 10.75L69.454-69.22c9.865-5.328 20.181-9.797 30.738-13.56l49.777 19.754zm55.141 6.172c-6.505 1.688-12.917 3.753-19.148 6.274l-28.517-11.738c7.877-2.991 15.963-5.418 24.155-7.379 7.837 4.28 15.673 8.562 23.51 12.843zm-27.206-14.86c-8.466 2-16.823 4.48-24.966 7.542L104.285-84.2c11.153-3.752 22.553-6.754 34.079-9.115l39.54 21.6zm75.873 8.438c-7.476.183-14.946.685-22.373 1.563l-17.036-13.46a302.421 302.421 0 0127.553-1.51l11.856 13.407zm-25.107 1.902c-7.071.927-14.099 2.197-21.028 3.885l-22.869-12.944c8.648-1.932 17.404-3.366 26.207-4.374l17.69 13.433zm-20.452-15.53c-9.08 1.015-18.113 2.47-27.036 4.44L142.794-94.19c11.957-2.279 24.038-3.888 36.164-4.935l29.26 22.22z" fill="#007481"/><path d="M518.089 50.629c-40.209-39.34-88.318-70.821-141.08-90.526-27.333-10.21-55.875-17.337-84.906-20.452l2.419 8.111c41.82 4.204 82.424 17.796 119.36 37.65 29.761 16.025 57.165 36.325 81.511 59.751l22.696 5.466zm-78.885 293.087a1121.574 1121.574 0 0048.606 9.655l-35.035-69.611a1016.624 1016.624 0 01-40.057-10.524l26.486 70.48zm-92.752-138.635a835.562 835.562 0 0041.692 15.208l15.694 44.271a942.917 942.917 0 01-49.748-16.321l-7.638-43.158zm-44.227-23.338a716.71 716.71 0 0038.46 16.968l-4.221-27.488a638.706 638.706 0 01-33.092-15.335l-1.147 25.855zm53.051 73.196a955.213 955.213 0 0050.976 16.433l25.013 70.552a1083.857 1083.857 0 01-63.529-16.599l-12.46-70.386zm-53.232-69.102c12.925 6.129 26.043 11.848 39.306 17.204l6.6 42.963c-16.095-5.925-32.02-12.312-47.721-19.213l1.815-40.954zm-53.835 22.551c14.982 7.942 30.26 15.322 45.759 22.201l-4.821 68.108c-20.368-7.872-40.465-16.451-60.198-25.804l19.26-64.505zm14.173-47.468c11.517 6.596 23.273 12.771 35.203 18.584l1.814-25.62c-10.168-5.178-20.186-10.652-29.997-16.48l-7.02 23.516zm-65.428-45.366c8.481 7.285 17.343 14.118 26.456 20.591l13.053-20.376c-7.658-5.596-15.1-11.492-22.222-17.757l-17.287 17.542zm28.088 26.449c10.371 7.157 21.046 13.869 31.94 20.201l-12.305 37.335c-13.602-7.448-26.937-15.39-39.898-23.906l20.263-33.63zm-30.863-23.633c8.7 7.446 17.793 14.426 27.143 21.035l-21.216 33.119c-11.799-7.937-23.267-16.377-34.253-25.409l28.326-28.745zm7.372 62.62c13.377 8.722 27.141 16.843 41.177 24.457l-21.075 63.941c-18.863-9.176-37.378-19.079-55.392-29.829l35.29-58.569zm-40.237-29.269c11.358 9.279 23.215 17.938 35.409 26.084l-37.022 57.792c-16.683-10.22-32.919-21.184-48.487-33.037l50.1-50.839zm-6.683-82.894c4.723 7.259 10.043 14.119 15.743 20.634l21.631-13.746c-4.764-5.538-9.205-11.361-13.156-17.508l-24.218 10.62zm18.07 23.248c6.661 7.37 13.802 14.299 21.251 20.868l17.775-17.172c-6.232-5.626-12.205-11.547-17.779-17.829-7.083 4.71-14.165 9.422-21.247 14.133zM186.59-48.493c-5.623 2.413-11.08 5.228-16.24 8.52l20.851 6.044c4.288-2.837 8.837-5.269 13.53-7.365l-18.141-7.2zm-47.937 96.018c2.81 7.111 6.366 13.914 10.408 20.399L108.5 84.868c-5.137-8.081-9.645-16.582-13.174-25.49l43.327-11.852zm-1.357-22.3c.808 6.393 2.437 12.667 4.646 18.715l26.267-6.767c-1.863-5.106-3.253-10.396-3.962-15.788l-26.951 3.84zm31.984 69.124c6.841 7.542 14.168 14.635 21.818 21.351l-29.15 28.162c-9.713-8.212-19.027-16.908-27.714-26.202l35.046-23.31zm-36.329-68.505c.821 6.556 2.489 12.99 4.756 19.189a1817677 1817677 0 00-43.57 11.223c-2.84-7.762-4.9-15.83-5.847-24.047l44.661-6.365zm4.656-20.017c-.957 5.655-1.102 11.436-.56 17.142l26.977-3.488c-.49-4.81-.412-9.686.334-14.467l-26.751.813zm1.593-17.586a61.336 61.336 0 00-5.509 15.629l-44.04.82a75.375 75.375 0 017.42-19.489l42.129 3.04zm-5.901 17.718c-.993 5.795-1.151 11.721-.601 17.57-14.898 1.927-29.797 3.852-44.696 5.778-.61-7.34-.292-14.768 1.1-22.004l44.197-1.344zm10.02-17.422a59.723 59.723 0 00-5.332 15.253l26.669-.497a50.97 50.97 0 014.292-12.905l-25.629-1.85zm10.517-14.918c-3.696 3.976-6.95 8.375-9.57 13.133l25.45 2.122c2.132-4.031 4.791-7.776 7.836-11.167l-23.716-4.088zm53.62-29.192c-6.341 1.66-12.591 3.684-18.662 6.158l17.779 7.319c5.091-2.157 10.339-3.936 15.67-5.399l-14.787-8.078zm22.989-4.453c-6.9.915-13.757 2.17-20.519 3.827l14.399 8.149c5.715-1.477 11.518-2.601 17.359-3.44l-11.239-8.535zm24.531-1.897c-7.306.19-14.605.694-21.861 1.562l10.837 8.561a197.475 197.475 0 0118.635-1.514l-7.611-8.609zm25.556.563a275.944 275.944 0 00-22.75-.619l7.209 8.593a234.49 234.49 0 0119.54.359l-3.999-8.333z" fill="#004876"/></g></svg>